# vtk DataFile Version 2.0
Mesh
ASCII
DATASET POLYDATA
POINTS 1919 float
2.44929e-16 -4 0
2.41042e-16 -3.93651 0
2.37211e-16 -3.87395 0
2.33438e-16 -3.81232 0
2.29721e-16 -3.75163 0
2.26062e-16 -3.69188 0
2.2246e-16 -3.63305 0
2.18916e-16 -3.57516 0
2.15428e-16 -3.51821 0
2.11998e-16 -3.46218 0
2.08624e-16 -3.4071 0
2.05308e-16 -3.35294 0
2.0205e-16 -3.29972 0
1.98848e-16 -3.24743 0
1.95703e-16 -3.19608 0
1.92616e-16 -3.14566 0
1.89586e-16 -3.09617 0
1.86613e-16 -3.04762 0
1.83697e-16 -3 0
0.0628293 -3.99951 0
0.061832 -3.93602 0
0.0608494 -3.87347 0
0.0598814 -3.81185 0
0.0589281 -3.75117 0
0.0579895 -3.69142 0
0.0570655 -3.63261 0
0.0561562 -3.57472 0
0.0552616 -3.51777 0
0.0543816 -3.46176 0
0.0535163 -3.40668 0
0.0526657 -3.35253 0
0.0518297 -3.29931 0
0.0510084 -3.24703 0
0.0502018 -3.19568 0
0.0494099 -3.14527 0
0.0486326 -3.09579 0
0.0478699 -3.04724 0
0.047122 -2.99963 0
0.125643 -3.99803 0
0.123649 -3.93457 0
0.121684 -3.87204 0
0.119748 -3.81044 0
0.117842 -3.74978 0
0.115965 -3.69006 0
0.114117 -3.63126 0
0.112299 -3.5734 0
0.11051 -3.51647 0
0.10875 -3.46048 0
0.107019 -3.40541 0
0.105318 -3.35129 0
0.103647 -3.29809 0
0.102004 -3.24583 0
0.100391 -3.1945 0
0.0988075 -3.14411 0
0.0972531 -3.09464 0
0.095728 -3.04612 0
0.0942323 -2.99852 0
0.188426 -3.99556 0
0.185435 -3.93214 0
0.182488 -3.86965 0
0.179585 -3.80809 0
0.176726 -3.74747 0
0.173911 -3.68778 0
0.17114 -3.62902 0
0.168413 -3.57119 0
0.16573 -3.5143 0
0.163091 -3.45834 0
0.160496 -3.40331 0
0.157945 -3.34922 0
0.155438 -3.29606 0
0.152975 -3.24383 0
0.150556 -3.19253 0
0.148181 -3.14217 0
0.14585 -3.09273 0
0.143563 -3.04424 0
0.141319 -2.99667 0
0.251162 -3.99211 0
0.247175 -3.92874 0
0.243247 -3.86631 0
0.239378 -3.8048 0
0.235567 -3.74423 0
0.231815 -3.68459 0
0.228121 -3.62588 0
0.224486 -3.56811 0
0.22091 -3.51126 0
0.217392 -3.45535 0
0.213933 -3.40037 0
0.210533 -3.34632 0
0.207191 -3.29321 0
0.203908 -3.24102 0
0.200683 -3.18977 0
0.197518 -3.13945 0
0.19441 -3.09006 0
0.191362 -3.04161 0
0.188372 -2.99408 0
0.313836 -3.98767 0
0.308855 -3.92437 0
0.303947 -3.86201 0
0.299112 -3.80057 0
0.29435 -3.74007 0
0.289661 -3.6805 0
0.285046 -3.62185 0
0.280504 -3.56414 0
0.276035 -3.50736 0
0.27164 -3.45151 0
0.267318 -3.39659 0
0.263069 -3.34261 0
0.258893 -3.28955 0
0.254791 -3.23742 0
0.250761 -3.18623 0
0.246806 -3.13596 0
0.242923 -3.08663 0
0.239113 -3.03822 0
0.235377 -2.99075 0
0.376433 -3.98225 0
0.370458 -3.91904 0
0.364571 -3.85676 0
0.358771 -3.79541 0
0.35306 -3.73498 0
0.347436 -3.67549 0
0.341901 -3.61693 0
0.336453 -3.5593 0
0.331093 -3.50259 0
0.32582 -3.44682 0
0.320636 -3.39198 0
0.31554 -3.33806 0
0.310531 -3.28508 0
0.30561 -3.23302 0
0.300778 -3.18189 0
0.296033 -3.1317 0
0.291376 -3.08243 0
0.286806 -3.03409 0
0.282325 -2.98669 0
0.438937 -3.97584 0
0.43197 -3.91274 0
0.425105 -3.85055 0
0.418343 -3.7893 0
0.411683 -3.72898 0
0.405126 -3.66958 0
0.398671 -3.61111 0
0.392318 -3.55357 0
0.386068 -3.49696 0
0.37992 -3.44128 0
0.373875 -3.38652 0
0.367933 -3.33269 0
0.362092 -3.27979 0
0.356355 -3.22782 0
0.350719 -3.17678 0
0.345187 -3.12666 0
0.339756 -3.07747 0
0.334428 -3.02921 0
0.329203 -2.98188 0
0.501333 -3.96846 0
0.493375 -3.90547 0
0.485535 -3.8434 0
0.477811 -3.78226 0
0.470204 -3.72205 0
0.462715 -3.66277 0
0.455342 -3.60441 0
0.448087 -3.54697 0
0.440948 -3.49047 0
0.433927 -3.43488 0
0.427022 -3.38023 0
0.420235 -3.3265 0
0.413565 -3.2737 0
0.407011 -3.22183 0
0.400575 -3.17088 0
0.394256 -3.12085 0
0.388053 -3.07176 0
0.381968 -3.02359 0
0.376 -2.97634 0
0.563605 -3.96009 0
0.554659 -3.89724 0
0.545844 -3.8353 0
0.537161 -3.77429 0
0.52861 -3.71421 0
0.52019 -3.65505 0
0.511902 -3.59681 0
0.503745 -3.5395 0
0.49572 -3.48311 0
0.487826 -3.42764 0
0.480064 -3.37311 0
0.472434 -3.31949 0
0.464935 -3.2668 0
0.457567 -3.21503 0
0.450331 -3.16419 0
0.443227 -3.11428 0
0.436254 -3.06528 0
0.429413 -3.01721 0
0.422704 -2.97007 0
0.625738 -3.95075 0
0.615806 -3.88804 0
0.606019 -3.82625 0
0.596379 -3.76539 0
0.586885 -3.70545 0
0.577537 -3.64642 0
0.568335 -3.58832 0
0.559279 -3.53115 0
0.550369 -3.47489 0
0.541605 -3.41956 0
0.532987 -3.36515 0
0.524516 -3.31166 0
0.51619 -3.25909 0
0.50801 -3.20745 0
0.499977 -3.15673 0
0.492089 -3.10693 0
0.484348 -3.05805 0
0.476753 -3.0101 0
0.469303 -2.96307 0
0.687716 -3.94044 0
0.6768 -3.87789 0
0.666045 -3.81626 0
0.65545 -3.75556 0
0.645015 -3.69577 0
0.634741 -3.6369 0
0.624628 -3.57895 0
0.614675 -3.52193 0
0.604882 -3.46582 0
0.59525 -3.41063 0
0.585779 -3.35636 0
0.576468 -3.30301 0
0.567318 -3.25058 0
0.558328 -3.19908 0
0.549499 -3.14849 0
0.54083 -3.09882 0
0.532322 -3.05007 0
0.523974 -3.00224 0
0.515787 -2.95533 0
0.749525 -3.92915 0
0.737628 -3.86678 0
0.725906 -3.80533 0
0.714358 -3.7448 0
0.702986 -3.68518 0
0.691789 -3.62648 0
0.680766 -3.5687 0
0.669919 -3.51184 0
0.659246 -3.45589 0
0.648749 -3.40086 0
0.638426 -3.34675 0
0.628279 -3.29355 0
0.618306 -3.24127 0
0.608508 -3.18991 0
0.598885 -3.13947 0
0.589438 -3.08994 0
0.580165 -3.04133 0
0.571067 -2.99364 0
0.562144 -2.94686 0
0.811149 -3.91689 0
0.798274 -3.85472 0
0.785588 -3.79346 0
0.773091 -3.73312 0
0.760784 -3.67369 0
0.748666 -3.61517 0
0.736737 -3.55757 0
0.724998 -3.50088 0
0.713448 -3.44511 0
0.702087 -3.39025 0
0.690916 -3.33631 0
0.679934 -3.28328 0
0.669141 -3.23116 0
0.658538 -3.17996 0
0.648124 -3.12967 0
0.6379 -3.0803 0
0.627864 -3.03184 0
0.618018 -2.9843 0
0.608362 -2.93767 0
0.872573 -3.90367 0
0.858723 -3.8417 0
0.845076 -3.78065 0
0.831633 -3.72051 0
0.818394 -3.66128 0
0.805358 -3.60296 0
0.792526 -3.54556 0
0.779898 -3.48906 0
0.767473 -3.43348 0
0.755252 -3.3788 0
0.743235 -3.32504 0
0.731421 -3.27219 0
0.719812 -3.22025 0
0.708405 -3.16922 0
0.697203 -3.11911 0
0.686204 -3.0699 0
0.675409 -3.02161 0
0.664817 -2.97422 0
0.65443 -2.92775 0
0.933781 -3.88948 0
0.91896 -3.82774 0
0.904356 -3.76691 0
0.88997 -3.70699 0
0.875802 -3.64798 0
0.861852 -3.58987 0
0.848119 -3.53267 0
0.834605 -3.47638 0
0.821309 -3.421 0
0.808231 -3.36652 0
0.795371 -3.31296 0
0.782729 -3.2603 0
0.770304 -3.20855 0
0.758098 -3.15771 0
0.74611 -3.10777 0
0.734339 -3.05874 0
0.722787 -3.01062 0
0.711453 -2.96341 0
0.700336 -2.91711 0
0.99476 -3.87433 0
0.97897 -3.81284 0
0.963412 -3.75224 0
0.948087 -3.69255 0
0.932993 -3.63377 0
0.918132 -3.57589 0
0.903504 -3.51891 0
0.889107 -3.46284 0
0.874943 -3.40768 0
0.86101 -3.35341 0
0.84731 -3.30006 0
0.833843 -3.2476 0
0.820607 -3.19605 0
0.807604 -3.14541 0
0.794832 -3.09567 0
0.782293 -3.04683 0
0.769987 -2.9989 0
0.757912 -2.95187 0
0.74607 -2.90575 0
1.05549 -3.85823 0
1.03874 -3.79699 0
1.02223 -3.73665 0
1.00597 -3.67721 0
0.989955 -3.61867 0
0.974187 -3.56103 0
0.958665 -3.50429 0
0.943389 -3.44845 0
0.92836 -3.39351 0
0.913577 -3.33948 0
0.899041 -3.28634 0
0.884751 -3.2341 0
0.870707 -3.18277 0
0.85691 -3.13233 0
0.843359 -3.0828 0
0.830054 -3.03417 0
0.816996 -2.98644 0
0.804185 -2.9396 0
0.791619 -2.89367 0
1.11596 -3.84117 0
1.09825 -3.7802 0
1.0808 -3.72013 0
1.0636 -3.66095 0
1.04667 -3.60267 0
1.03 -3.54529 0
1.01359 -3.4888 0
0.997439 -3.43321 0
0.981549 -3.37851 0
0.965919 -3.32471 0
0.95055 -3.27181 0
0.935441 -3.21981 0
0.920593 -3.1687 0
0.906005 -3.11849 0
0.891677 -3.06917 0
0.877611 -3.02076 0
0.863804 -2.97323 0
0.850259 -2.92661 0
0.836973 -2.88088 0
1.17616 -3.82317 0
1.15749 -3.76249 0
1.1391 -3.70269 0
1.12098 -3.64379 0
1.10313 -3.58579 0
1.08556 -3.52867 0
1.06826 -3.47245 0
1.05124 -3.41712 0
1.03449 -3.36268 0
1.01802 -3.30913 0
1.00182 -3.25648 0
0.9859 -3.20472 0
0.970251 -3.15385 0
0.954876 -3.10387 0
0.939776 -3.05479 0
0.92495 -3.0066 0
0.910399 -2.9593 0
0.896123 -2.91289 0
0.882121 -2.86738 0
1.23607 -3.80423 0
1.21645 -3.74384 0
1.19712 -3.68434 0
1.17807 -3.62574 0
1.15932 -3.56802 0
1.14085 -3.51118 0
1.12268 -3.45524 0
1.10479 -3.40018 0
1.08719 -3.34601 0
1.06987 -3.29273 0
1.05285 -3.24034 0
1.03612 -3.18884 0
1.01967 -3.13822 0
1.00351 -3.08849 0
0.987643 -3.03965 0
0.972062 -2.9917 0
0.95677 -2.94463 0
0.941766 -2.89846 0
0.927051 -2.85317 0
1.29567 -3.78434 0
1.2751 -3.72427 0
1.25484 -3.66509 0
1.23488 -3.60678 0
1.21522 -3.54937 0
1.19586 -3.49283 0
1.17681 -3.43718 0
1.15806 -3.38241 0
1.13961 -3.32852 0
1.12146 -3.27552 0
1.10362 -3.2234 0
1.08608 -3.17217 0
1.06884 -3.12182 0
1.0519 -3.07235 0
1.03527 -3.02376 0
1.01893 -2.97606 0
1.0029 -2.92924 0
0.987177 -2.88331 0
0.971752 -2.83826 0
1.35495 -3.76352 0
1.33344 -3.70378 0
1.31225 -3.64492 0
1.29138 -3.58694 0
1.27082 -3.52984 0
1.25058 -3.47362 0
1.23065 -3.41827 0
1.21104 -3.3638 0
1.19175 -3.31021 0
1.17277 -3.2575 0
1.15411 -3.20567 0
1.13577 -3.15472 0
1.11774 -3.10464 0
1.10003 -3.05545 0
1.08263 -3.00713 0
1.06555 -2.95969 0
1.04879 -2.91313 0
1.03234 -2.86745 0
1.01621 -2.82264 0
1.4139 -3.74178 0
1.39146 -3.68238 0
1.36934 -3.62386 0
1.34756 -3.56622 0
1.32611 -3.50944 0
1.30499 -3.45354 0
1.28419 -3.39852 0
1.26373 -3.34437 0
1.2436 -3.29109 0
1.2238 -3.23868 0
1.20432 -3.18715 0
1.18518 -3.13649 0
1.16637 -3.0867 0
1.14789 -3.03779 0
1.12973 -2.98975 0
1.11191 -2.94259 0
1.09442 -2.8963 0
1.07726 -2.85088 0
1.06042 -2.80633 0
1.4725 -3.71911 0
1.44913 -3.66007 0
1.4261 -3.60191 0
1.40341 -3.54461 0
1.38107 -3.48818 0
1.35907 -3.43262 0
1.33742 -3.37793 0
1.31611 -3.3241 0
1.29514 -3.27115 0
1.27452 -3.21906 0
1.25424 -3.16784 0
1.2343 -3.11749 0
1.21471 -3.068 0
1.19546 -3.01939 0
1.17655 -2.97164 0
1.15799 -2.92476 0
1.13978 -2.87875 0
1.1219 -2.8336 0
1.10437 -2.78933 0
1.53073 -3.69552 0
1.50644 -3.63686 0
1.4825 -3.57906 0
1.45891 -3.52213 0
1.43569 -3.46606 0
1.41282 -3.41085 0
1.39031 -3.3565 0
1.36816 -3.30302 0
1.34636 -3.2504 0
1.32492 -3.19864 0
1.30384 -3.14775 0
1.28312 -3.09771 0
1.26275 -3.04854 0
1.24274 -3.00024 0
1.22309 -2.95279 0
1.20379 -2.90621 0
1.18485 -2.86049 0
1.16627 -2.81563 0
1.14805 -2.77164 0
1.58859 -3.67102 0
1.56338 -3.61275 0
1.53853 -3.55534 0
1.51406 -3.49878 0
1.48995 -3.44308 0
1.46622 -3.38824 0
1.44286 -3.33425 0
1.41987 -3.28112 0
1.39725 -3.22885 0
1.375 -3.17744 0
1.35312 -3.12688 0
1.33161 -3.07718 0
1.31048 -3.02833 0
1.28971 -2.98035 0
1.26932 -2.93322 0
1.24929 -2.88694 0
1.22964 -2.84153 0
1.21036 -2.79697 0
1.19144 -2.75326 0
1.64606 -3.64561 0
1.61993 -3.58775 0
1.59419 -3.53073 0
1.56883 -3.47457 0
1.54385 -3.41925 0
1.51926 -3.36479 0
1.49505 -3.31118 0
1.47123 -3.25842 0
1.44779 -3.20651 0
1.42474 -3.15545 0
1.40207 -3.10524 0
1.37978 -3.05588 0
1.35788 -3.00738 0
1.33637 -2.95972 0
1.31523 -2.91292 0
1.29448 -2.86696 0
1.27412 -2.82186 0
1.25414 -2.77761 0
1.23454 -2.73421 0
1.70312 -3.61931 0
1.67608 -3.56186 0
1.64945 -3.50525 0
1.62321 -3.44949 0
1.59737 -3.39458 0
1.57192 -3.34051 0
1.54688 -3.28728 0
1.52223 -3.2349 0
1.49798 -3.18337 0
1.47413 -3.13268 0
1.45067 -3.08283 0
1.42761 -3.03383 0
1.40495 -2.98568 0
1.38269 -2.93836 0
1.36082 -2.8919 0
1.33936 -2.84628 0
1.31829 -2.8015 0
1.29761 -2.75757 0
1.27734 -2.71448 0
1.75976 -3.59211 0
1.73182 -3.53509 0
1.7043 -3.47891 0
1.67719 -3.42357 0
1.65049 -3.36907 0
1.6242 -3.31541 0
1.59832 -3.26258 0
1.57285 -3.2106 0
1.5478 -3.15945 0
1.52315 -3.10914 0
1.49892 -3.05967 0
1.47509 -3.01103 0
1.45168 -2.96324 0
1.42867 -2.91628 0
1.40608 -2.87017 0
1.3839 -2.82489 0
1.36213 -2.78045 0
1.34077 -2.73685 0
1.31982 -2.69408 0
1.81596 -3.56403 0
1.78714 -3.50745 0
1.75874 -3.45171 0
1.73076 -3.39681 0
1.70321 -3.34273 0
1.67608 -3.28949 0
1.64937 -3.23707 0
1.62309 -3.18549 0
1.59723 -3.13475 0
1.5718 -3.08483 0
1.54679 -3.03574 0
1.5222 -2.98749 0
1.49804 -2.94007 0
1.4743 -2.89348 0
1.45099 -2.84773 0
1.4281 -2.8028 0
1.40563 -2.75871 0
1.38359 -2.71545 0
1.36197 -2.67302 0
1.87172 -3.53506 0
1.84201 -3.47895 0
1.81274 -3.42366 0
1.7839 -3.3692 0
1.7555 -3.31557 0
1.72754 -3.26275 0
1.70001 -3.21077 0
1.67293 -3.15961 0
1.64627 -3.10927 0
1.62006 -3.05976 0
1.59428 -3.01107 0
1.56894 -2.96321 0
1.54404 -2.91618 0
1.51957 -2.86997 0
1.49554 -2.82458 0
1.47195 -2.78002 0
1.44879 -2.73629 0
1.42607 -2.69338 0
1.40379 -2.6513 0
1.92701 -3.50523 0
1.89643 -3.44959 0
1.86629 -3.39477 0
1.8366 -3.34077 0
1.80736 -3.28758 0
1.77858 -3.23522 0
1.75024 -3.18367 0
1.72235 -3.13294 0
1.69491 -3.08303 0
1.66792 -3.03394 0
1.64138 -2.98566 0
1.61529 -2.9382 0
1.58965 -2.89157 0
1.56446 -2.84575 0
1.53972 -2.80074 0
1.51543 -2.75656 0
1.49159 -2.7132 0
1.4682 -2.67065 0
1.44526 -2.62892 0
1.98183 -3.47453 0
1.95038 -3.41937 0
1.91938 -3.36503 0
1.88885 -3.31151 0
1.85878 -3.25879 0
1.82917 -3.20688 0
1.80003 -3.15578 0
1.77135 -3.1055 0
1.74313 -3.05603 0
1.71537 -3.00736 0
1.68808 -2.95951 0
1.66124 -2.91247 0
1.63487 -2.86624 0
1.60897 -2.82082 0
1.58352 -2.77621 0
1.55854 -2.73242 0
1.53403 -2.68943 0
1.50997 -2.64726 0
1.48638 -2.60589 0
2.03617 -3.44297 0
2.00385 -3.38832 0
1.972 -3.33447 0
1.94063 -3.28143 0
1.90974 -3.22919 0
1.87932 -3.17775 0
1.84937 -3.12712 0
1.81991 -3.07729 0
1.79091 -3.02827 0
1.7624 -2.98005 0
1.73435 -2.93263 0
1.70679 -2.88602 0
1.67969 -2.84021 0
1.65308 -2.7952 0
1.62694 -2.751 0
1.60127 -2.7076 0
1.57608 -2.66501 0
1.55136 -2.62321 0
1.52712 -2.58223 0
2.08999 -3.41056 0
2.05682 -3.35642 0
2.02413 -3.30309 0
1.99193 -3.25054 0
1.96022 -3.19879 0
1.929 -3.14784 0
1.89827 -3.09769 0
1.86802 -3.04833 0
1.83826 -2.99976 0
1.80899 -2.952 0
1.7802 -2.90503 0
1.75191 -2.85885 0
1.7241 -2.81347 0
1.69678 -2.76889 0
1.66995 -2.7251 0
1.6436 -2.68211 0
1.61775 -2.63992 0
1.59238 -2.59852 0
1.5675 -2.55792 0
2.14331 -3.37731 0
2.10929 -3.3237 0
2.07577 -3.27088 0
2.04275 -3.21885 0
2.01023 -3.16761 0
1.97821 -3.11715 0
1.94669 -3.06749 0
1.91567 -3.01861 0
1.88515 -2.97052 0
1.85513 -2.92322 0
1.82561 -2.87671 0
1.7966 -2.83098 0
1.76808 -2.78605 0
1.74006 -2.7419 0
1.71254 -2.69854 0
1.68553 -2.65597 0
1.65901 -2.61418 0
1.633 -2.57319 0
1.60748 -2.53298 0
2.19609 -3.34323 0
2.16123 -3.29016 0
2.12689 -3.23788 0
2.09305 -3.18637 0
2.05973 -3.13564 0
2.02692 -3.0857 0
1.99463 -3.03653 0
1.96285 -2.98815 0
1.93158 -2.94054 0
1.90082 -2.89372 0
1.87057 -2.84768 0
1.84084 -2.80241 0
1.81162 -2.75793 0
1.78291 -2.71423 0
1.75472 -2.67131 0
1.72704 -2.62916 0
1.69987 -2.5878 0
1.67321 -2.54722 0
1.64707 -2.50742 0
2.24833 -3.30832 0
2.21265 -3.25581 0
2.17748 -3.20407 0
2.14284 -3.1531 0
2.10873 -3.1029 0
2.07514 -3.05348 0
2.04208 -3.00483 0
2.00954 -2.95695 0
1.97753 -2.90984 0
1.94604 -2.86351 0
1.91507 -2.81794 0
1.88463 -2.77315 0
1.85472 -2.72913 0
1.82533 -2.68589 0
1.79646 -2.64341 0
1.76812 -2.60171 0
1.74031 -2.56078 0
1.71302 -2.52063 0
1.68625 -2.48124 0
2.30002 -3.2726 0
2.26351 -3.22065 0
2.22754 -3.16947 0
2.19211 -3.11905 0
2.15721 -3.0694 0
2.12285 -3.02051 0
2.08902 -2.97238 0
2.05574 -2.92502 0
2.02299 -2.87842 0
1.99077 -2.83259 0
1.9591 -2.78751 0
1.92796 -2.74321 0
1.89736 -2.69966 0
1.86729 -2.65689 0
1.83776 -2.61487 0
1.80877 -2.57362 0
1.78032 -2.53313 0
1.7524 -2.49341 0
1.72502 -2.45445 0
2.35114 -3.23607 0
2.31382 -3.1847 0
2.27705 -3.13409 0
2.24083 -3.08424 0
2.20516 -3.03514 0
2.17003 -2.98679 0
2.13546 -2.9392 0
2.10143 -2.89237 0
2.06795 -2.84629 0
2.03502 -2.80097 0
2.00264 -2.7564 0
1.97081 -2.71259 0
1.93953 -2.66953 0
1.90879 -2.62723 0
1.87861 -2.58568 0
1.84897 -2.54489 0
1.81988 -2.50486 0
1.79135 -2.46558 0
1.76336 -2.42705 0
2.40168 -3.19874 0
2.36356 -3.14797 0
2.326 -3.09794 0
2.289 -3.04866 0
2.25256 -3.00012 0
2.21668 -2.95234 0
2.18136 -2.9053 0
2.1466 -2.859 0
2.1124 -2.81346 0
2.07877 -2.76866 0
2.04569 -2.7246 0
2.01317 -2.6813 0
1.98122 -2.63874 0
1.94982 -2.59692 0
1.91899 -2.55585 0
1.88872 -2.51553 0
1.859 -2.47596 0
1.82985 -2.43713 0
1.80126 -2.39905 0
2.45163 -3.16062 0
2.41271 -3.11045 0
2.37437 -3.06102 0
2.3366 -3.01233 0
2.2994 -2.96437 0
2.26278 -2.91715 0
2.22672 -2.87068 0
2.19124 -2.82493 0
2.15633 -2.77993 0
2.122 -2.73566 0
2.08823 -2.69213 0
2.05504 -2.64934 0
2.02242 -2.60729 0
1.99037 -2.56597 0
1.9589 -2.5254 0
1.928 -2.48556 0
1.89767 -2.44646 0
1.86791 -2.40809 0
1.83872 -2.37047 0
2.50097 -3.12172 0
2.46127 -3.07217 0
2.42216 -3.02335 0
2.38363 -2.97525 0
2.34568 -2.92789 0
2.30832 -2.88125 0
2.27154 -2.83535 0
2.23534 -2.79017 0
2.19973 -2.74572 0
2.16471 -2.70199 0
2.13026 -2.659 0
2.0964 -2.61674 0
2.06313 -2.5752 0
2.03043 -2.53439 0
1.99832 -2.49432 0
1.9668 -2.45497 0
1.93586 -2.41635 0
1.9055 -2.37845 0
1.87573 -2.34129 0
2.5497 -3.08205 0
2.50922 -3.03313 0
2.46935 -2.98493 0
2.43007 -2.93745 0
2.39138 -2.89068 0
2.35329 -2.84464 0
2.3158 -2.79932 0
2.27889 -2.75471 0
2.24259 -2.71083 0
2.20688 -2.66766 0
2.17176 -2.62521 0
2.13725 -2.58349 0
2.10332 -2.54248 0
2.06999 -2.50219 0
2.03726 -2.46262 0
2.00512 -2.42377 0
1.97357 -2.38564 0
1.94263 -2.34823 0
1.91227 -2.31154 0
2.59779 -3.04162 0
2.55656 -2.99334 0
2.51593 -2.94577 0
2.47591 -2.89891 0
2.43649 -2.85276 0
2.39768 -2.80733 0
2.35948 -2.7626 0
2.32188 -2.71858 0
2.28489 -2.67527 0
2.24851 -2.63267 0
2.21273 -2.59078 0
2.17756 -2.5496 0
2.143 -2.50913 0
2.10904 -2.46937 0
2.07569 -2.43032 0
2.04294 -2.39198 0
2.0108 -2.35435 0
1.97927 -2.31743 0
1.94834 -2.28122 0
2.64525 -3.00044 0
2.60326 -2.95282 0
2.56189 -2.90589 0
2.52114 -2.85967 0
2.481 -2.81414 0
2.44148 -2.76932 0
2.40258 -2.72519 0
2.3643 -2.68177 0
2.32663 -2.63905 0
2.28958 -2.59702 0
2.25315 -2.5557 0
2.21734 -2.51508 0
2.18214 -2.47516 0
2.14757 -2.43593 0
2.1136 -2.39741 0
2.08026 -2.35959 0
2.04754 -2.32247 0
2.01543 -2.28605 0
1.98394 -2.25033 0
2.69205 -2.95852 0
2.64932 -2.91156 0
2.60722 -2.86529 0
2.56574 -2.81971 0
2.5249 -2.77483 0
2.48468 -2.73063 0
2.44509 -2.68712 0
2.40613 -2.6443 0
2.3678 -2.60218 0
2.33009 -2.56074 0
2.29302 -2.51999 0
2.25657 -2.47994 0
2.22075 -2.44058 0
2.18556 -2.4019 0
2.151 -2.36392 0
2.11707 -2.32663 0
2.08376 -2.29002 0
2.05109 -2.25411 0
2.01904 -2.21889 0
2.73819 -2.91587 0
2.69473 -2.86959 0
2.6519 -2.82399 0
2.60972 -2.77907 0
2.56817 -2.73482 0
2.52726 -2.69126 0
2.487 -2.64838 0
2.44737 -2.60618 0
2.40838 -2.56466 0
2.37003 -2.52382 0
2.33232 -2.48367 0
2.29525 -2.44419 0
2.25881 -2.40539 0
2.22302 -2.36728 0
2.18787 -2.32984 0
2.15335 -2.29309 0
2.11948 -2.25701 0
2.08624 -2.22162 0
2.05364 -2.18691 0
2.78365 -2.87251 0
2.73947 -2.82691 0
2.69593 -2.78199 0
2.65305 -2.73773 0
2.61081 -2.69415 0
2.56922 -2.65123 0
2.52829 -2.60899 0
2.488 -2.56742 0
2.44837 -2.52652 0
2.40938 -2.48629 0
2.37104 -2.44673 0
2.33335 -2.40784 0
2.29632 -2.36962 0
2.25993 -2.33207 0
2.22419 -2.29519 0
2.1891 -2.25898 0
2.15467 -2.22344 0
2.12088 -2.18858 0
2.08774 -2.15438 0
2.82843 -2.82843 0
2.78353 -2.78353 0
2.7393 -2.7393 0
2.69572 -2.69572 0
2.65281 -2.65281 0
2.61055 -2.61055 0
2.56896 -2.56896 0
2.52802 -2.52802 0
2.48775 -2.48775 0
2.44813 -2.44813 0
2.40918 -2.40918 0
2.37089 -2.37089 0
2.33325 -2.33325 0
2.29628 -2.29628 0
2.25997 -2.25997 0
2.22432 -2.22432 0
2.18932 -2.18932 0
2.15499 -2.15499 0
2.12132 -2.12132 0
2.87251 -2.78365 0
2.82691 -2.73947 0
2.78199 -2.69593 0
2.73773 -2.65305 0
2.69415 -2.61081 0
2.65123 -2.56922 0
2.60899 -2.52829 0
2.56742 -2.488 0
2.52652 -2.44837 0
2.48629 -2.40938 0
2.44673 -2.37104 0
2.40784 -2.33335 0
2.36962 -2.29632 0
2.33207 -2.25993 0
2.29519 -2.22419 0
2.25898 -2.1891 0
2.22344 -2.15467 0
2.18858 -2.12088 0
2.15438 -2.08774 0
2.91587 -2.73819 0
2.86959 -2.69473 0
2.82399 -2.6519 0
2.77907 -2.60972 0
2.73482 -2.56817 0
2.69126 -2.52726 0
2.64838 -2.487 0
2.60618 -2.44737 0
2.56466 -2.40838 0
2.52382 -2.37003 0
2.48367 -2.33232 0
2.44419 -2.29525 0
2.40539 -2.25881 0
2.36728 -2.22302 0
2.32984 -2.18787 0
2.29309 -2.15335 0
2.25701 -2.11948 0
2.22162 -2.08624 0
2.18691 -2.05364 0
2.95852 -2.69205 0
2.91156 -2.64932 0
2.86529 -2.60722 0
2.81971 -2.56574 0
2.77483 -2.5249 0
2.73063 -2.48468 0
2.68712 -2.44509 0
2.6443 -2.40613 0
2.60218 -2.3678 0
2.56074 -2.33009 0
2.51999 -2.29302 0
2.47994 -2.25657 0
2.44058 -2.22075 0
2.4019 -2.18556 0
2.36392 -2.151 0
2.32663 -2.11707 0
2.29002 -2.08376 0
2.25411 -2.05109 0
2.21889 -2.01904 0
3.00044 -2.64525 0
2.95282 -2.60326 0
2.90589 -2.56189 0
2.85967 -2.52114 0
2.81414 -2.481 0
2.76932 -2.44148 0
2.72519 -2.40258 0
2.68177 -2.3643 0
2.63905 -2.32663 0
2.59702 -2.28958 0
2.5557 -2.25315 0
2.51508 -2.21734 0
2.47516 -2.18214 0
2.43593 -2.14757 0
2.39741 -2.1136 0
2.35959 -2.08026 0
2.32247 -2.04754 0
2.28605 -2.01543 0
2.25033 -1.98394 0
3.04162 -2.59779 0
2.99334 -2.55656 0
2.94577 -2.51593 0
2.89891 -2.47591 0
2.85276 -2.43649 0
2.80733 -2.39768 0
2.7626 -2.35948 0
2.71858 -2.32188 0
2.67527 -2.28489 0
2.63267 -2.24851 0
2.59078 -2.21273 0
2.5496 -2.17756 0
2.50913 -2.143 0
2.46937 -2.10904 0
2.43032 -2.07569 0
2.39198 -2.04294 0
2.35435 -2.0108 0
2.31743 -1.97927 0
2.28122 -1.94834 0
3.08205 -2.5497 0
3.03313 -2.50922 0
2.98493 -2.46935 0
2.93745 -2.43007 0
2.89068 -2.39138 0
2.84464 -2.35329 0
2.79932 -2.3158 0
2.75471 -2.27889 0
2.71083 -2.24259 0
2.66766 -2.20688 0
2.62521 -2.17176 0
2.58349 -2.13725 0
2.54248 -2.10332 0
2.50219 -2.06999 0
2.46262 -2.03726 0
2.42377 -2.00512 0
2.38564 -1.97357 0
2.34823 -1.94263 0
2.31154 -1.91227 0
3.12172 -2.50097 0
3.07217 -2.46127 0
3.02335 -2.42216 0
2.97525 -2.38363 0
2.92789 -2.34568 0
2.88125 -2.30832 0
2.83535 -2.27154 0
2.79017 -2.23534 0
2.74572 -2.19973 0
2.70199 -2.16471 0
2.659 -2.13026 0
2.61674 -2.0964 0
2.5752 -2.06313 0
2.53439 -2.03043 0
2.49432 -1.99832 0
2.45497 -1.9668 0
2.41635 -1.93586 0
2.37845 -1.9055 0
2.34129 -1.87573 0
3.16062 -2.45163 0
3.11045 -2.41271 0
3.06102 -2.37437 0
3.01233 -2.3366 0
2.96437 -2.2994 0
2.91715 -2.26278 0
2.87068 -2.22672 0
2.82493 -2.19124 0
2.77993 -2.15633 0
2.73566 -2.122 0
2.69213 -2.08823 0
2.64934 -2.05504 0
2.60729 -2.02242 0
2.56597 -1.99037 0
2.5254 -1.9589 0
2.48556 -1.928 0
2.44646 -1.89767 0
2.40809 -1.86791 0
2.37047 -1.83872 0
3.19874 -2.40168 0
3.14797 -2.36356 0
3.09794 -2.326 0
3.04866 -2.289 0
3.00012 -2.25256 0
2.95234 -2.21668 0
2.9053 -2.18136 0
2.859 -2.1466 0
2.81346 -2.1124 0
2.76866 -2.07877 0
2.7246 -2.04569 0
2.6813 -2.01317 0
2.63874 -1.98122 0
2.59692 -1.94982 0
2.55585 -1.91899 0
2.51553 -1.88872 0
2.47596 -1.859 0
2.43713 -1.82985 0
2.39905 -1.80126 0
3.23607 -2.35114 0
3.1847 -2.31382 0
3.13409 -2.27705 0
3.08424 -2.24083 0
3.03514 -2.20516 0
2.98679 -2.17003 0
2.9392 -2.13546 0
2.89237 -2.10143 0
2.84629 -2.06795 0
2.80097 -2.03502 0
2.7564 -2.00264 0
2.71259 -1.97081 0
2.66953 -1.93953 0
2.62723 -1.90879 0
2.58568 -1.87861 0
2.54489 -1.84897 0
2.50486 -1.81988 0
2.46558 -1.79135 0
2.42705 -1.76336 0
3.2726 -2.30002 0
3.22065 -2.26351 0
3.16947 -2.22754 0
3.11905 -2.19211 0
3.0694 -2.15721 0
3.02051 -2.12285 0
2.97238 -2.08902 0
2.92502 -2.05574 0
2.87842 -2.02299 0
2.83259 -1.99077 0
2.78751 -1.9591 0
2.74321 -1.92796 0
2.69966 -1.89736 0
2.65689 -1.86729 0
2.61487 -1.83776 0
2.57362 -1.80877 0
2.53313 -1.78032 0
2.49341 -1.7524 0
2.45445 -1.72502 0
3.30832 -2.24833 0
3.25581 -2.21265 0
3.20407 -2.17748 0
3.1531 -2.14284 0
3.1029 -2.10873 0
3.05348 -2.07514 0
3.00483 -2.04208 0
2.95695 -2.00954 0
2.90984 -1.97753 0
2.86351 -1.94604 0
2.81794 -1.91507 0
2.77315 -1.88463 0
2.72913 -1.85472 0
2.68589 -1.82533 0
2.64341 -1.79646 0
2.60171 -1.76812 0
2.56078 -1.74031 0
2.52063 -1.71302 0
2.48124 -1.68625 0
3.34323 -2.19609 0
3.29016 -2.16123 0
3.23788 -2.12689 0
3.18637 -2.09305 0
3.13564 -2.05973 0
3.0857 -2.02692 0
3.03653 -1.99463 0
2.98815 -1.96285 0
2.94054 -1.93158 0
2.89372 -1.90082 0
2.84768 -1.87057 0
2.80241 -1.84084 0
2.75793 -1.81162 0
2.71423 -1.78291 0
2.67131 -1.75472 0
2.62916 -1.72704 0
2.5878 -1.69987 0
2.54722 -1.67321 0
2.50742 -1.64707 0
3.37731 -2.14331 0
3.3237 -2.10929 0
3.27088 -2.07577 0
3.21885 -2.04275 0
3.16761 -2.01023 0
3.11715 -1.97821 0
3.06749 -1.94669 0
3.01861 -1.91567 0
2.97052 -1.88515 0
2.92322 -1.85513 0
2.87671 -1.82561 0
2.83098 -1.7966 0
2.78605 -1.76808 0
2.7419 -1.74006 0
2.69854 -1.71254 0
2.65597 -1.68553 0
2.61418 -1.65901 0
2.57319 -1.633 0
2.53298 -1.60748 0
3.41056 -2.08999 0
3.35642 -2.05682 0
3.30309 -2.02413 0
3.25054 -1.99193 0
3.19879 -1.96022 0
3.14784 -1.929 0
3.09769 -1.89827 0
3.04833 -1.86802 0
2.99976 -1.83826 0
2.952 -1.80899 0
2.90503 -1.7802 0
2.85885 -1.75191 0
2.81347 -1.7241 0
2.76889 -1.69678 0
2.7251 -1.66995 0
2.68211 -1.6436 0
2.63992 -1.61775 0
2.59852 -1.59238 0
2.55792 -1.5675 0
3.44297 -2.03617 0
3.38832 -2.00385 0
3.33447 -1.972 0
3.28143 -1.94063 0
3.22919 -1.90974 0
3.17775 -1.87932 0
3.12712 -1.84937 0
3.07729 -1.81991 0
3.02827 -1.79091 0
2.98005 -1.7624 0
2.93263 -1.73435 0
2.88602 -1.70679 0
2.84021 -1.67969 0
2.7952 -1.65308 0
2.751 -1.62694 0
2.7076 -1.60127 0
2.66501 -1.57608 0
2.62321 -1.55136 0
2.58223 -1.52712 0
3.47453 -1.98183 0
3.41937 -1.95038 0
3.36503 -1.91938 0
3.31151 -1.88885 0
3.25879 -1.85878 0
3.20688 -1.82917 0
3.15578 -1.80003 0
3.1055 -1.77135 0
3.05603 -1.74313 0
3.00736 -1.71537 0
2.95951 -1.68808 0
2.91247 -1.66124 0
2.86624 -1.63487 0
2.82082 -1.60897 0
2.77621 -1.58352 0
2.73242 -1.55854 0
2.68943 -1.53403 0
2.64726 -1.50997 0
2.60589 -1.48638 0
3.50523 -1.92701 0
3.44959 -1.89643 0
3.39477 -1.86629 0
3.34077 -1.8366 0
3.28758 -1.80736 0
3.23522 -1.77858 0
3.18367 -1.75024 0
3.13294 -1.72235 0
3.08303 -1.69491 0
3.03394 -1.66792 0
2.98566 -1.64138 0
2.9382 -1.61529 0
2.89157 -1.58965 0
2.84575 -1.56446 0
2.80074 -1.53972 0
2.75656 -1.51543 0
2.7132 -1.49159 0
2.67065 -1.4682 0
2.62892 -1.44526 0
3.53506 -1.87172 0
3.47895 -1.84201 0
3.42366 -1.81274 0
3.3692 -1.7839 0
3.31557 -1.7555 0
3.26275 -1.72754 0
3.21077 -1.70001 0
3.15961 -1.67293 0
3.10927 -1.64627 0
3.05976 -1.62006 0
3.01107 -1.59428 0
2.96321 -1.56894 0
2.91618 -1.54404 0
2.86997 -1.51957 0
2.82458 -1.49554 0
2.78002 -1.47195 0
2.73629 -1.44879 0
2.69338 -1.42607 0
2.6513 -1.40379 0
3.56403 -1.81596 0
3.50745 -1.78714 0
3.45171 -1.75874 0
3.39681 -1.73076 0
3.34273 -1.70321 0
3.28949 -1.67608 0
3.23707 -1.64937 0
3.18549 -1.62309 0
3.13475 -1.59723 0
3.08483 -1.5718 0
3.03574 -1.54679 0
2.98749 -1.5222 0
2.94007 -1.49804 0
2.89348 -1.4743 0
2.84773 -1.45099 0
2.8028 -1.4281 0
2.75871 -1.40563 0
2.71545 -1.38359 0
2.67302 -1.36197 0
3.59211 -1.75976 0
3.53509 -1.73182 0
3.47891 -1.7043 0
3.42357 -1.67719 0
3.36907 -1.65049 0
3.31541 -1.6242 0
3.26258 -1.59832 0
3.2106 -1.57285 0
3.15945 -1.5478 0
3.10914 -1.52315 0
3.05967 -1.49892 0
3.01103 -1.47509 0
2.96324 -1.45168 0
2.91628 -1.42867 0
2.87017 -1.40608 0
2.82489 -1.3839 0
2.78045 -1.36213 0
2.73685 -1.34077 0
2.69408 -1.31982 0
3.61931 -1.70312 0
3.56186 -1.67608 0
3.50525 -1.64945 0
3.44949 -1.62321 0
3.39458 -1.59737 0
3.34051 -1.57192 0
3.28728 -1.54688 0
3.2349 -1.52223 0
3.18337 -1.49798 0
3.13268 -1.47413 0
3.08283 -1.45067 0
3.03383 -1.42761 0
2.98568 -1.40495 0
2.93836 -1.38269 0
2.8919 -1.36082 0
2.84628 -1.33936 0
2.8015 -1.31829 0
2.75757 -1.29761 0
2.71448 -1.27734 0
3.64561 -1.64606 0
3.58775 -1.61993 0
3.53073 -1.59419 0
3.47457 -1.56883 0
3.41925 -1.54385 0
3.36479 -1.51926 0
3.31118 -1.49505 0
3.25842 -1.47123 0
3.20651 -1.44779 0
3.15545 -1.42474 0
3.10524 -1.40207 0
3.05588 -1.37978 0
3.00738 -1.35788 0
2.95972 -1.33637 0
2.91292 -1.31523 0
2.86696 -1.29448 0
2.82186 -1.27412 0
2.77761 -1.25414 0
2.73421 -1.23454 0
3.67102 -1.58859 0
3.61275 -1.56338 0
3.55534 -1.53853 0
3.49878 -1.51406 0
3.44308 -1.48995 0
3.38824 -1.46622 0
3.33425 -1.44286 0
3.28112 -1.41987 0
3.22885 -1.39725 0
3.17744 -1.375 0
3.12688 -1.35312 0
3.07718 -1.33161 0
3.02833 -1.31048 0
2.98035 -1.28971 0
2.93322 -1.26932 0
2.88694 -1.24929 0
2.84153 -1.22964 0
2.79697 -1.21036 0
2.75326 -1.19144 0
3.69552 -1.53073 0
3.63686 -1.50644 0
3.57906 -1.4825 0
3.52213 -1.45891 0
3.46606 -1.43569 0
3.41085 -1.41282 0
3.3565 -1.39031 0
3.30302 -1.36816 0
3.2504 -1.34636 0
3.19864 -1.32492 0
3.14775 -1.30384 0
3.09771 -1.28312 0
3.04854 -1.26275 0
3.00024 -1.24274 0
2.95279 -1.22309 0
2.90621 -1.20379 0
2.86049 -1.18485 0
2.81563 -1.16627 0
2.77164 -1.14805 0
3.71911 -1.4725 0
3.66007 -1.44913 0
3.60191 -1.4261 0
3.54461 -1.40341 0
3.48818 -1.38107 0
3.43262 -1.35907 0
3.37793 -1.33742 0
3.3241 -1.31611 0
3.27115 -1.29514 0
3.21906 -1.27452 0
3.16784 -1.25424 0
3.11749 -1.2343 0
3.068 -1.21471 0
3.01939 -1.19546 0
2.97164 -1.17655 0
2.92476 -1.15799 0
2.87875 -1.13978 0
2.8336 -1.1219 0
2.78933 -1.10437 0
3.74178 -1.4139 0
3.68238 -1.39146 0
3.62386 -1.36934 0
3.56622 -1.34756 0
3.50944 -1.32611 0
3.45354 -1.30499 0
3.39852 -1.28419 0
3.34437 -1.26373 0
3.29109 -1.2436 0
3.23868 -1.2238 0
3.18715 -1.20432 0
3.13649 -1.18518 0
3.0867 -1.16637 0
3.03779 -1.14789 0
2.98975 -1.12973 0
2.94259 -1.11191 0
2.8963 -1.09442 0
2.85088 -1.07726 0
2.80633 -1.06042 0
3.76352 -1.35495 0
3.70378 -1.33344 0
3.64492 -1.31225 0
3.58694 -1.29138 0
3.52984 -1.27082 0
3.47362 -1.25058 0
3.41827 -1.23065 0
3.3638 -1.21104 0
3.31021 -1.19175 0
3.2575 -1.17277 0
3.20567 -1.15411 0
3.15472 -1.13577 0
3.10464 -1.11774 0
3.05545 -1.10003 0
3.00713 -1.08263 0
2.95969 -1.06555 0
2.91313 -1.04879 0
2.86745 -1.03234 0
2.82264 -1.01621 0
3.78434 -1.29567 0
3.72427 -1.2751 0
3.66509 -1.25484 0
3.60678 -1.23488 0
3.54937 -1.21522 0
3.49283 -1.19586 0
3.43718 -1.17681 0
3.38241 -1.15806 0
3.32852 -1.13961 0
3.27552 -1.12146 0
3.2234 -1.10362 0
3.17217 -1.08608 0
3.12182 -1.06884 0
3.07235 -1.0519 0
3.02376 -1.03527 0
2.97606 -1.01893 0
2.92924 -1.0029 0
2.88331 -0.987177 0
2.83826 -0.971752 0
3.80423 -1.23607 0
3.74384 -1.21645 0
3.68434 -1.19712 0
3.62574 -1.17807 0
3.56802 -1.15932 0
3.51118 -1.14085 0
3.45524 -1.12268 0
3.40018 -1.10479 0
3.34601 -1.08719 0
3.29273 -1.06987 0
3.24034 -1.05285 0
3.18884 -1.03612 0
3.13822 -1.01967 0
3.08849 -1.00351 0
3.03965 -0.987643 0
2.9917 -0.972062 0
2.94463 -0.95677 0
2.89846 -0.941766 0
2.85317 -0.927051 0
3.82317 -1.17616 0
3.76249 -1.15749 0
3.70269 -1.1391 0
3.64379 -1.12098 0
3.58579 -1.10313 0
3.52867 -1.08556 0
3.47245 -1.06826 0
3.41712 -1.05124 0
3.36268 -1.03449 0
3.30913 -1.01802 0
3.25648 -1.00182 0
3.20472 -0.9859 0
3.15385 -0.970251 0
3.10387 -0.954876 0
3.05479 -0.939776 0
3.0066 -0.92495 0
2.9593 -0.910399 0
2.91289 -0.896123 0
2.86738 -0.882121 0
3.84117 -1.11596 0
3.7802 -1.09825 0
3.72013 -1.0808 0
3.66095 -1.0636 0
3.60267 -1.04667 0
3.54529 -1.03 0
3.4888 -1.01359 0
3.43321 -0.997439 0
3.37851 -0.981549 0
3.32471 -0.965919 0
3.27181 -0.95055 0
3.21981 -0.935441 0
3.1687 -0.920593 0
3.11849 -0.906005 0
3.06917 -0.891677 0
3.02076 -0.877611 0
2.97323 -0.863804 0
2.92661 -0.850259 0
2.88088 -0.836973 0
3.85823 -1.05549 0
3.79699 -1.03874 0
3.73665 -1.02223 0
3.67721 -1.00597 0
3.61867 -0.989955 0
3.56103 -0.974187 0
3.50429 -0.958665 0
3.44845 -0.943389 0
3.39351 -0.92836 0
3.33948 -0.913577 0
3.28634 -0.899041 0
3.2341 -0.884751 0
3.18277 -0.870707 0
3.13233 -0.85691 0
3.0828 -0.843359 0
3.03417 -0.830054 0
2.98644 -0.816996 0
2.9396 -0.804185 0
2.89367 -0.791619 0
3.87433 -0.99476 0
3.81284 -0.97897 0
3.75224 -0.963412 0
3.69255 -0.948087 0
3.63377 -0.932993 0
3.57589 -0.918132 0
3.51891 -0.903504 0
3.46284 -0.889107 0
3.40768 -0.874943 0
3.35341 -0.86101 0
3.30006 -0.84731 0
3.2476 -0.833843 0
3.19605 -0.820607 0
3.14541 -0.807604 0
3.09567 -0.794832 0
3.04683 -0.782293 0
2.9989 -0.769987 0
2.95187 -0.757912 0
2.90575 -0.74607 0
3.88948 -0.933781 0
3.82774 -0.91896 0
3.76691 -0.904356 0
3.70699 -0.88997 0
3.64798 -0.875802 0
3.58987 -0.861852 0
3.53267 -0.848119 0
3.47638 -0.834605 0
3.421 -0.821309 0
3.36652 -0.808231 0
3.31296 -0.795371 0
3.2603 -0.782729 0
3.20855 -0.770304 0
3.15771 -0.758098 0
3.10777 -0.74611 0
3.05874 -0.734339 0
3.01062 -0.722787 0
2.96341 -0.711453 0
2.91711 -0.700336 0
3.90367 -0.872573 0
3.8417 -0.858723 0
3.78065 -0.845076 0
3.72051 -0.831633 0
3.66128 -0.818394 0
3.60296 -0.805358 0
3.54556 -0.792526 0
3.48906 -0.779898 0
3.43348 -0.767473 0
3.3788 -0.755252 0
3.32504 -0.743235 0
3.27219 -0.731421 0
3.22025 -0.719812 0
3.16922 -0.708405 0
3.11911 -0.697203 0
3.0699 -0.686204 0
3.02161 -0.675409 0
2.97422 -0.664817 0
2.92775 -0.65443 0
3.91689 -0.811149 0
3.85472 -0.798274 0
3.79346 -0.785588 0
3.73312 -0.773091 0
3.67369 -0.760784 0
3.61517 -0.748666 0
3.55757 -0.736737 0
3.50088 -0.724998 0
3.44511 -0.713448 0
3.39025 -0.702087 0
3.33631 -0.690916 0
3.28328 -0.679934 0
3.23116 -0.669141 0
3.17996 -0.658538 0
3.12967 -0.648124 0
3.0803 -0.6379 0
3.03184 -0.627864 0
2.9843 -0.618018 0
2.93767 -0.608362 0
3.92915 -0.749525 0
3.86678 -0.737628 0
3.80533 -0.725906 0
3.7448 -0.714358 0
3.68518 -0.702986 0
3.62648 -0.691789 0
3.5687 -0.680766 0
3.51184 -0.669919 0
3.45589 -0.659246 0
3.40086 -0.648749 0
3.34675 -0.638426 0
3.29355 -0.628279 0
3.24127 -0.618306 0
3.18991 -0.608508 0
3.13947 -0.598885 0
3.08994 -0.589438 0
3.04133 -0.580165 0
2.99364 -0.571067 0
2.94686 -0.562144 0
3.94044 -0.687716 0
3.87789 -0.6768 0
3.81626 -0.666045 0
3.75556 -0.65545 0
3.69577 -0.645015 0
3.6369 -0.634741 0
3.57895 -0.624628 0
3.52193 -0.614675 0
3.46582 -0.604882 0
3.41063 -0.59525 0
3.35636 -0.585779 0
3.30301 -0.576468 0
3.25058 -0.567318 0
3.19908 -0.558328 0
3.14849 -0.549499 0
3.09882 -0.54083 0
3.05007 -0.532322 0
3.00224 -0.523974 0
2.95533 -0.515787 0
3.95075 -0.625738 0
3.88804 -0.615806 0
3.82625 -0.606019 0
3.76539 -0.596379 0
3.70545 -0.586885 0
3.64642 -0.577537 0
3.58832 -0.568335 0
3.53115 -0.559279 0
3.47489 -0.550369 0
3.41956 -0.541605 0
3.36515 -0.532987 0
3.31166 -0.524516 0
3.25909 -0.51619 0
3.20745 -0.50801 0
3.15673 -0.499977 0
3.10693 -0.492089 0
3.05805 -0.484348 0
3.0101 -0.476753 0
2.96307 -0.469303 0
3.96009 -0.563605 0
3.89724 -0.554659 0
3.8353 -0.545844 0
3.77429 -0.537161 0
3.71421 -0.52861 0
3.65505 -0.52019 0
3.59681 -0.511902 0
3.5395 -0.503745 0
3.48311 -0.49572 0
3.42764 -0.487826 0
3.37311 -0.480064 0
3.31949 -0.472434 0
3.2668 -0.464935 0
3.21503 -0.457567 0
3.16419 -0.450331 0
3.11428 -0.443227 0
3.06528 -0.436254 0
3.01721 -0.429413 0
2.97007 -0.422704 0
3.96846 -0.501333 0
3.90547 -0.493375 0
3.8434 -0.485535 0
3.78226 -0.477811 0
3.72205 -0.470204 0
3.66277 -0.462715 0
3.60441 -0.455342 0
3.54697 -0.448087 0
3.49047 -0.440948 0
3.43488 -0.433927 0
3.38023 -0.427022 0
3.3265 -0.420235 0
3.2737 -0.413565 0
3.22183 -0.407011 0
3.17088 -0.400575 0
3.12085 -0.394256 0
3.07176 -0.388053 0
3.02359 -0.381968 0
2.97634 -0.376 0
3.97584 -0.438937 0
3.91274 -0.43197 0
3.85055 -0.425105 0
3.7893 -0.418343 0
3.72898 -0.411683 0
3.66958 -0.405126 0
3.61111 -0.398671 0
3.55357 -0.392318 0
3.49696 -0.386068 0
3.44128 -0.37992 0
3.38652 -0.373875 0
3.33269 -0.367933 0
3.27979 -0.362092 0
3.22782 -0.356355 0
3.17678 -0.350719 0
3.12666 -0.345187 0
3.07747 -0.339756 0
3.02921 -0.334428 0
2.98188 -0.329203 0
3.98225 -0.376433 0
3.91904 -0.370458 0
3.85676 -0.364571 0
3.79541 -0.358771 0
3.73498 -0.35306 0
3.67549 -0.347436 0
3.61693 -0.341901 0
3.5593 -0.336453 0
3.50259 -0.331093 0
3.44682 -0.32582 0
3.39198 -0.320636 0
3.33806 -0.31554 0
3.28508 -0.310531 0
3.23302 -0.30561 0
3.18189 -0.300778 0
3.1317 -0.296033 0
3.08243 -0.291376 0
3.03409 -0.286806 0
2.98669 -0.282325 0
3.98767 -0.313836 0
3.92437 -0.308855 0
3.86201 -0.303947 0
3.80057 -0.299112 0
3.74007 -0.29435 0
3.6805 -0.289661 0
3.62185 -0.285046 0
3.56414 -0.280504 0
3.50736 -0.276035 0
3.45151 -0.27164 0
3.39659 -0.267318 0
3.34261 -0.263069 0
3.28955 -0.258893 0
3.23742 -0.254791 0
3.18623 -0.250761 0
3.13596 -0.246806 0
3.08663 -0.242923 0
3.03822 -0.239113 0
2.99075 -0.235377 0
3.99211 -0.251162 0
3.92874 -0.247175 0
3.86631 -0.243247 0
3.8048 -0.239378 0
3.74423 -0.235567 0
3.68459 -0.231815 0
3.62588 -0.228121 0
3.56811 -0.224486 0
3.51126 -0.22091 0
3.45535 -0.217392 0
3.40037 -0.213933 0
3.34632 -0.210533 0
3.29321 -0.207191 0
3.24102 -0.203908 0
3.18977 -0.200683 0
3.13945 -0.197518 0
3.09006 -0.19441 0
3.04161 -0.191362 0
2.99408 -0.188372 0
3.99556 -0.188426 0
3.93214 -0.185435 0
3.86965 -0.182488 0
3.80809 -0.179585 0
3.74747 -0.176726 0
3.68778 -0.173911 0
3.62902 -0.17114 0
3.57119 -0.168413 0
3.5143 -0.16573 0
3.45834 -0.163091 0
3.40331 -0.160496 0
3.34922 -0.157945 0
3.29606 -0.155438 0
3.24383 -0.152975 0
3.19253 -0.150556 0
3.14217 -0.148181 0
3.09273 -0.14585 0
3.04424 -0.143563 0
2.99667 -0.141319 0
3.99803 -0.125643 0
3.93457 -0.123649 0
3.87204 -0.121684 0
3.81044 -0.119748 0
3.74978 -0.117842 0
3.69006 -0.115965 0
3.63126 -0.114117 0
3.5734 -0.112299 0
3.51647 -0.11051 0
3.46048 -0.10875 0
3.40541 -0.107019 0
3.35129 -0.105318 0
3.29809 -0.103647 0
3.24583 -0.102004 0
3.1945 -0.100391 0
3.14411 -0.0988075 0
3.09464 -0.0972531 0
3.04612 -0.095728 0
2.99852 -0.0942323 0
3.99951 -0.0628293 0
3.93602 -0.061832 0
3.87347 -0.0608494 0
3.81185 -0.0598814 0
3.75117 -0.0589281 0
3.69142 -0.0579895 0
3.63261 -0.0570655 0
3.57472 -0.0561562 0
3.51777 -0.0552616 0
3.46176 -0.0543816 0
3.40668 -0.0535163 0
3.35253 -0.0526657 0
3.29931 -0.0518297 0
3.24703 -0.0510084 0
3.19568 -0.0502018 0
3.14527 -0.0494099 0
3.09579 -0.0486326 0
3.04724 -0.0478699 0
2.99963 -0.047122 0
4 8.88178e-16 0
3.93651 8.7408e-16 0
3.87395 8.6019e-16 0
3.81232 8.46506e-16 0
3.75163 8.3303e-16 0
3.69188 8.19761e-16 0
3.63305 8.067e-16 0
3.57516 7.93846e-16 0
3.51821 7.81199e-16 0
3.46218 7.68759e-16 0
3.4071 7.56527e-16 0
3.35294 7.44502e-16 0
3.29972 7.32685e-16 0
3.24743 7.21075e-16 0
3.19608 7.09672e-16 0
3.14566 6.98476e-16 0
3.09617 6.87488e-16 0
3.04762 6.76707e-16 0
3 6.66134e-16 0
POLYGONS 1800 9000
4 20 1 0 19 
4 21 2 1 20 
4 22 3 2 21 
4 23 4 3 22 
4 24 5 4 23 
4 25 6 5 24 
4 26 7 6 25 
4 27 8 7 26 
4 28 9 8 27 
4 29 10 9 28 
4 30 11 10 29 
4 31 12 11 30 
4 32 13 12 31 
4 33 14 13 32 
4 34 15 14 33 
4 35 16 15 34 
4 36 17 16 35 
4 37 18 17 36 
4 39 20 19 38 
4 40 21 20 39 
4 41 22 21 40 
4 42 23 22 41 
4 43 24 23 42 
4 44 25 24 43 
4 45 26 25 44 
4 46 27 26 45 
4 47 28 27 46 
4 48 29 28 47 
4 49 30 29 48 
4 50 31 30 49 
4 51 32 31 50 
4 52 33 32 51 
4 53 34 33 52 
4 54 35 34 53 
4 55 36 35 54 
4 56 37 36 55 
4 58 39 38 57 
4 59 40 39 58 
4 60 41 40 59 
4 61 42 41 60 
4 62 43 42 61 
4 63 44 43 62 
4 64 45 44 63 
4 65 46 45 64 
4 66 47 46 65 
4 67 48 47 66 
4 68 49 48 67 
4 69 50 49 68 
4 70 51 50 69 
4 71 52 51 70 
4 72 53 52 71 
4 73 54 53 72 
4 74 55 54 73 
4 75 56 55 74 
4 77 58 57 76 
4 78 59 58 77 
4 79 60 59 78 
4 80 61 60 79 
4 81 62 61 80 
4 82 63 62 81 
4 83 64 63 82 
4 84 65 64 83 
4 85 66 65 84 
4 86 67 66 85 
4 87 68 67 86 
4 88 69 68 87 
4 89 70 69 88 
4 90 71 70 89 
4 91 72 71 90 
4 92 73 72 91 
4 93 74 73 92 
4 94 75 74 93 
4 96 77 76 95 
4 97 78 77 96 
4 98 79 78 97 
4 99 80 79 98 
4 100 81 80 99 
4 101 82 81 100 
4 102 83 82 101 
4 103 84 83 102 
4 104 85 84 103 
4 105 86 85 104 
4 106 87 86 105 
4 107 88 87 106 
4 108 89 88 107 
4 109 90 89 108 
4 110 91 90 109 
4 111 92 91 110 
4 112 93 92 111 
4 113 94 93 112 
4 115 96 95 114 
4 116 97 96 115 
4 117 98 97 116 
4 118 99 98 117 
4 119 100 99 118 
4 120 101 100 119 
4 121 102 101 120 
4 122 103 102 121 
4 123 104 103 122 
4 124 105 104 123 
4 125 106 105 124 
4 126 107 106 125 
4 127 108 107 126 
4 128 109 108 127 
4 129 110 109 128 
4 130 111 110 129 
4 131 112 111 130 
4 132 113 112 131 
4 134 115 114 133 
4 135 116 115 134 
4 136 117 116 135 
4 137 118 117 136 
4 138 119 118 137 
4 139 120 119 138 
4 140 121 120 139 
4 141 122 121 140 
4 142 123 122 141 
4 143 124 123 142 
4 144 125 124 143 
4 145 126 125 144 
4 146 127 126 145 
4 147 128 127 146 
4 148 129 128 147 
4 149 130 129 148 
4 150 131 130 149 
4 151 132 131 150 
4 153 134 133 152 
4 154 135 134 153 
4 155 136 135 154 
4 156 137 136 155 
4 157 138 137 156 
4 158 139 138 157 
4 159 140 139 158 
4 160 141 140 159 
4 161 142 141 160 
4 162 143 142 161 
4 163 144 143 162 
4 164 145 144 163 
4 165 146 145 164 
4 166 147 146 165 
4 167 148 147 166 
4 168 149 148 167 
4 169 150 149 168 
4 170 151 150 169 
4 172 153 152 171 
4 173 154 153 172 
4 174 155 154 173 
4 175 156 155 174 
4 176 157 156 175 
4 177 158 157 176 
4 178 159 158 177 
4 179 160 159 178 
4 180 161 160 179 
4 181 162 161 180 
4 182 163 162 181 
4 183 164 163 182 
4 184 165 164 183 
4 185 166 165 184 
4 186 167 166 185 
4 187 168 167 186 
4 188 169 168 187 
4 189 170 169 188 
4 191 172 171 190 
4 192 173 172 191 
4 193 174 173 192 
4 194 175 174 193 
4 195 176 175 194 
4 196 177 176 195 
4 197 178 177 196 
4 198 179 178 197 
4 199 180 179 198 
4 200 181 180 199 
4 201 182 181 200 
4 202 183 182 201 
4 203 184 183 202 
4 204 185 184 203 
4 205 186 185 204 
4 206 187 186 205 
4 207 188 187 206 
4 208 189 188 207 
4 210 191 190 209 
4 211 192 191 210 
4 212 193 192 211 
4 213 194 193 212 
4 214 195 194 213 
4 215 196 195 214 
4 216 197 196 215 
4 217 198 197 216 
4 218 199 198 217 
4 219 200 199 218 
4 220 201 200 219 
4 221 202 201 220 
4 222 203 202 221 
4 223 204 203 222 
4 224 205 204 223 
4 225 206 205 224 
4 226 207 206 225 
4 227 208 207 226 
4 229 210 209 228 
4 230 211 210 229 
4 231 212 211 230 
4 232 213 212 231 
4 233 214 213 232 
4 234 215 214 233 
4 235 216 215 234 
4 236 217 216 235 
4 237 218 217 236 
4 238 219 218 237 
4 239 220 219 238 
4 240 221 220 239 
4 241 222 221 240 
4 242 223 222 241 
4 243 224 223 242 
4 244 225 224 243 
4 245 226 225 244 
4 246 227 226 245 
4 248 229 228 247 
4 249 230 229 248 
4 250 231 230 249 
4 251 232 231 250 
4 252 233 232 251 
4 253 234 233 252 
4 254 235 234 253 
4 255 236 235 254 
4 256 237 236 255 
4 257 238 237 256 
4 258 239 238 257 
4 259 240 239 258 
4 260 241 240 259 
4 261 242 241 260 
4 262 243 242 261 
4 263 244 243 262 
4 264 245 244 263 
4 265 246 245 264 
4 267 248 247 266 
4 268 249 248 267 
4 269 250 249 268 
4 270 251 250 269 
4 271 252 251 270 
4 272 253 252 271 
4 273 254 253 272 
4 274 255 254 273 
4 275 256 255 274 
4 276 257 256 275 
4 277 258 257 276 
4 278 259 258 277 
4 279 260 259 278 
4 280 261 260 279 
4 281 262 261 280 
4 282 263 262 281 
4 283 264 263 282 
4 284 265 264 283 
4 286 267 266 285 
4 287 268 267 286 
4 288 269 268 287 
4 289 270 269 288 
4 290 271 270 289 
4 291 272 271 290 
4 292 273 272 291 
4 293 274 273 292 
4 294 275 274 293 
4 295 276 275 294 
4 296 277 276 295 
4 297 278 277 296 
4 298 279 278 297 
4 299 280 279 298 
4 300 281 280 299 
4 301 282 281 300 
4 302 283 282 301 
4 303 284 283 302 
4 305 286 285 304 
4 306 287 286 305 
4 307 288 287 306 
4 308 289 288 307 
4 309 290 289 308 
4 310 291 290 309 
4 311 292 291 310 
4 312 293 292 311 
4 313 294 293 312 
4 314 295 294 313 
4 315 296 295 314 
4 316 297 296 315 
4 317 298 297 316 
4 318 299 298 317 
4 319 300 299 318 
4 320 301 300 319 
4 321 302 301 320 
4 322 303 302 321 
4 324 305 304 323 
4 325 306 305 324 
4 326 307 306 325 
4 327 308 307 326 
4 328 309 308 327 
4 329 310 309 328 
4 330 311 310 329 
4 331 312 311 330 
4 332 313 312 331 
4 333 314 313 332 
4 334 315 314 333 
4 335 316 315 334 
4 336 317 316 335 
4 337 318 317 336 
4 338 319 318 337 
4 339 320 319 338 
4 340 321 320 339 
4 341 322 321 340 
4 343 324 323 342 
4 344 325 324 343 
4 345 326 325 344 
4 346 327 326 345 
4 347 328 327 346 
4 348 329 328 347 
4 349 330 329 348 
4 350 331 330 349 
4 351 332 331 350 
4 352 333 332 351 
4 353 334 333 352 
4 354 335 334 353 
4 355 336 335 354 
4 356 337 336 355 
4 357 338 337 356 
4 358 339 338 357 
4 359 340 339 358 
4 360 341 340 359 
4 362 343 342 361 
4 363 344 343 362 
4 364 345 344 363 
4 365 346 345 364 
4 366 347 346 365 
4 367 348 347 366 
4 368 349 348 367 
4 369 350 349 368 
4 370 351 350 369 
4 371 352 351 370 
4 372 353 352 371 
4 373 354 353 372 
4 374 355 354 373 
4 375 356 355 374 
4 376 357 356 375 
4 377 358 357 376 
4 378 359 358 377 
4 379 360 359 378 
4 381 362 361 380 
4 382 363 362 381 
4 383 364 363 382 
4 384 365 364 383 
4 385 366 365 384 
4 386 367 366 385 
4 387 368 367 386 
4 388 369 368 387 
4 389 370 369 388 
4 390 371 370 389 
4 391 372 371 390 
4 392 373 372 391 
4 393 374 373 392 
4 394 375 374 393 
4 395 376 375 394 
4 396 377 376 395 
4 397 378 377 396 
4 398 379 378 397 
4 400 381 380 399 
4 401 382 381 400 
4 402 383 382 401 
4 403 384 383 402 
4 404 385 384 403 
4 405 386 385 404 
4 406 387 386 405 
4 407 388 387 406 
4 408 389 388 407 
4 409 390 389 408 
4 410 391 390 409 
4 411 392 391 410 
4 412 393 392 411 
4 413 394 393 412 
4 414 395 394 413 
4 415 396 395 414 
4 416 397 396 415 
4 417 398 397 416 
4 419 400 399 418 
4 420 401 400 419 
4 421 402 401 420 
4 422 403 402 421 
4 423 404 403 422 
4 424 405 404 423 
4 425 406 405 424 
4 426 407 406 425 
4 427 408 407 426 
4 428 409 408 427 
4 429 410 409 428 
4 430 411 410 429 
4 431 412 411 430 
4 432 413 412 431 
4 433 414 413 432 
4 434 415 414 433 
4 435 416 415 434 
4 436 417 416 435 
4 438 419 418 437 
4 439 420 419 438 
4 440 421 420 439 
4 441 422 421 440 
4 442 423 422 441 
4 443 424 423 442 
4 444 425 424 443 
4 445 426 425 444 
4 446 427 426 445 
4 447 428 427 446 
4 448 429 428 447 
4 449 430 429 448 
4 450 431 430 449 
4 451 432 431 450 
4 452 433 432 451 
4 453 434 433 452 
4 454 435 434 453 
4 455 436 435 454 
4 457 438 437 456 
4 458 439 438 457 
4 459 440 439 458 
4 460 441 440 459 
4 461 442 441 460 
4 462 443 442 461 
4 463 444 443 462 
4 464 445 444 463 
4 465 446 445 464 
4 466 447 446 465 
4 467 448 447 466 
4 468 449 448 467 
4 469 450 449 468 
4 470 451 450 469 
4 471 452 451 470 
4 472 453 452 471 
4 473 454 453 472 
4 474 455 454 473 
4 476 457 456 475 
4 477 458 457 476 
4 478 459 458 477 
4 479 460 459 478 
4 480 461 460 479 
4 481 462 461 480 
4 482 463 462 481 
4 483 464 463 482 
4 484 465 464 483 
4 485 466 465 484 
4 486 467 466 485 
4 487 468 467 486 
4 488 469 468 487 
4 489 470 469 488 
4 490 471 470 489 
4 491 472 471 490 
4 492 473 472 491 
4 493 474 473 492 
4 495 476 475 494 
4 496 477 476 495 
4 497 478 477 496 
4 498 479 478 497 
4 499 480 479 498 
4 500 481 480 499 
4 501 482 481 500 
4 502 483 482 501 
4 503 484 483 502 
4 504 485 484 503 
4 505 486 485 504 
4 506 487 486 505 
4 507 488 487 506 
4 508 489 488 507 
4 509 490 489 508 
4 510 491 490 509 
4 511 492 491 510 
4 512 493 492 511 
4 514 495 494 513 
4 515 496 495 514 
4 516 497 496 515 
4 517 498 497 516 
4 518 499 498 517 
4 519 500 499 518 
4 520 501 500 519 
4 521 502 501 520 
4 522 503 502 521 
4 523 504 503 522 
4 524 505 504 523 
4 525 506 505 524 
4 526 507 506 525 
4 527 508 507 526 
4 528 509 508 527 
4 529 510 509 528 
4 530 511 510 529 
4 531 512 511 530 
4 533 514 513 532 
4 534 515 514 533 
4 535 516 515 534 
4 536 517 516 535 
4 537 518 517 536 
4 538 519 518 537 
4 539 520 519 538 
4 540 521 520 539 
4 541 522 521 540 
4 542 523 522 541 
4 543 524 523 542 
4 544 525 524 543 
4 545 526 525 544 
4 546 527 526 545 
4 547 528 527 546 
4 548 529 528 547 
4 549 530 529 548 
4 550 531 530 549 
4 552 533 532 551 
4 553 534 533 552 
4 554 535 534 553 
4 555 536 535 554 
4 556 537 536 555 
4 557 538 537 556 
4 558 539 538 557 
4 559 540 539 558 
4 560 541 540 559 
4 561 542 541 560 
4 562 543 542 561 
4 563 544 543 562 
4 564 545 544 563 
4 565 546 545 564 
4 566 547 546 565 
4 567 548 547 566 
4 568 549 548 567 
4 569 550 549 568 
4 571 552 551 570 
4 572 553 552 571 
4 573 554 553 572 
4 574 555 554 573 
4 575 556 555 574 
4 576 557 556 575 
4 577 558 557 576 
4 578 559 558 577 
4 579 560 559 578 
4 580 561 560 579 
4 581 562 561 580 
4 582 563 562 581 
4 583 564 563 582 
4 584 565 564 583 
4 585 566 565 584 
4 586 567 566 585 
4 587 568 567 586 
4 588 569 568 587 
4 590 571 570 589 
4 591 572 571 590 
4 592 573 572 591 
4 593 574 573 592 
4 594 575 574 593 
4 595 576 575 594 
4 596 577 576 595 
4 597 578 577 596 
4 598 579 578 597 
4 599 580 579 598 
4 600 581 580 599 
4 601 582 581 600 
4 602 583 582 601 
4 603 584 583 602 
4 604 585 584 603 
4 605 586 585 604 
4 606 587 586 605 
4 607 588 587 606 
4 609 590 589 608 
4 610 591 590 609 
4 611 592 591 610 
4 612 593 592 611 
4 613 594 593 612 
4 614 595 594 613 
4 615 596 595 614 
4 616 597 596 615 
4 617 598 597 616 
4 618 599 598 617 
4 619 600 599 618 
4 620 601 600 619 
4 621 602 601 620 
4 622 603 602 621 
4 623 604 603 622 
4 624 605 604 623 
4 625 606 605 624 
4 626 607 606 625 
4 628 609 608 627 
4 629 610 609 628 
4 630 611 610 629 
4 631 612 611 630 
4 632 613 612 631 
4 633 614 613 632 
4 634 615 614 633 
4 635 616 615 634 
4 636 617 616 635 
4 637 618 617 636 
4 638 619 618 637 
4 639 620 619 638 
4 640 621 620 639 
4 641 622 621 640 
4 642 623 622 641 
4 643 624 623 642 
4 644 625 624 643 
4 645 626 625 644 
4 647 628 627 646 
4 648 629 628 647 
4 649 630 629 648 
4 650 631 630 649 
4 651 632 631 650 
4 652 633 632 651 
4 653 634 633 652 
4 654 635 634 653 
4 655 636 635 654 
4 656 637 636 655 
4 657 638 637 656 
4 658 639 638 657 
4 659 640 639 658 
4 660 641 640 659 
4 661 642 641 660 
4 662 643 642 661 
4 663 644 643 662 
4 664 645 644 663 
4 666 647 646 665 
4 667 648 647 666 
4 668 649 648 667 
4 669 650 649 668 
4 670 651 650 669 
4 671 652 651 670 
4 672 653 652 671 
4 673 654 653 672 
4 674 655 654 673 
4 675 656 655 674 
4 676 657 656 675 
4 677 658 657 676 
4 678 659 658 677 
4 679 660 659 678 
4 680 661 660 679 
4 681 662 661 680 
4 682 663 662 681 
4 683 664 663 682 
4 685 666 665 684 
4 686 667 666 685 
4 687 668 667 686 
4 688 669 668 687 
4 689 670 669 688 
4 690 671 670 689 
4 691 672 671 690 
4 692 673 672 691 
4 693 674 673 692 
4 694 675 674 693 
4 695 676 675 694 
4 696 677 676 695 
4 697 678 677 696 
4 698 679 678 697 
4 699 680 679 698 
4 700 681 680 699 
4 701 682 681 700 
4 702 683 682 701 
4 704 685 684 703 
4 705 686 685 704 
4 706 687 686 705 
4 707 688 687 706 
4 708 689 688 707 
4 709 690 689 708 
4 710 691 690 709 
4 711 692 691 710 
4 712 693 692 711 
4 713 694 693 712 
4 714 695 694 713 
4 715 696 695 714 
4 716 697 696 715 
4 717 698 697 716 
4 718 699 698 717 
4 719 700 699 718 
4 720 701 700 719 
4 721 702 701 720 
4 723 704 703 722 
4 724 705 704 723 
4 725 706 705 724 
4 726 707 706 725 
4 727 708 707 726 
4 728 709 708 727 
4 729 710 709 728 
4 730 711 710 729 
4 731 712 711 730 
4 732 713 712 731 
4 733 714 713 732 
4 734 715 714 733 
4 735 716 715 734 
4 736 717 716 735 
4 737 718 717 736 
4 738 719 718 737 
4 739 720 719 738 
4 740 721 720 739 
4 742 723 722 741 
4 743 724 723 742 
4 744 725 724 743 
4 745 726 725 744 
4 746 727 726 745 
4 747 728 727 746 
4 748 729 728 747 
4 749 730 729 748 
4 750 731 730 749 
4 751 732 731 750 
4 752 733 732 751 
4 753 734 733 752 
4 754 735 734 753 
4 755 736 735 754 
4 756 737 736 755 
4 757 738 737 756 
4 758 739 738 757 
4 759 740 739 758 
4 761 742 741 760 
4 762 743 742 761 
4 763 744 743 762 
4 764 745 744 763 
4 765 746 745 764 
4 766 747 746 765 
4 767 748 747 766 
4 768 749 748 767 
4 769 750 749 768 
4 770 751 750 769 
4 771 752 751 770 
4 772 753 752 771 
4 773 754 753 772 
4 774 755 754 773 
4 775 756 755 774 
4 776 757 756 775 
4 777 758 757 776 
4 778 759 758 777 
4 780 761 760 779 
4 781 762 761 780 
4 782 763 762 781 
4 783 764 763 782 
4 784 765 764 783 
4 785 766 765 784 
4 786 767 766 785 
4 787 768 767 786 
4 788 769 768 787 
4 789 770 769 788 
4 790 771 770 789 
4 791 772 771 790 
4 792 773 772 791 
4 793 774 773 792 
4 794 775 774 793 
4 795 776 775 794 
4 796 777 776 795 
4 797 778 777 796 
4 799 780 779 798 
4 800 781 780 799 
4 801 782 781 800 
4 802 783 782 801 
4 803 784 783 802 
4 804 785 784 803 
4 805 786 785 804 
4 806 787 786 805 
4 807 788 787 806 
4 808 789 788 807 
4 809 790 789 808 
4 810 791 790 809 
4 811 792 791 810 
4 812 793 792 811 
4 813 794 793 812 
4 814 795 794 813 
4 815 796 795 814 
4 816 797 796 815 
4 818 799 798 817 
4 819 800 799 818 
4 820 801 800 819 
4 821 802 801 820 
4 822 803 802 821 
4 823 804 803 822 
4 824 805 804 823 
4 825 806 805 824 
4 826 807 806 825 
4 827 808 807 826 
4 828 809 808 827 
4 829 810 809 828 
4 830 811 810 829 
4 831 812 811 830 
4 832 813 812 831 
4 833 814 813 832 
4 834 815 814 833 
4 835 816 815 834 
4 837 818 817 836 
4 838 819 818 837 
4 839 820 819 838 
4 840 821 820 839 
4 841 822 821 840 
4 842 823 822 841 
4 843 824 823 842 
4 844 825 824 843 
4 845 826 825 844 
4 846 827 826 845 
4 847 828 827 846 
4 848 829 828 847 
4 849 830 829 848 
4 850 831 830 849 
4 851 832 831 850 
4 852 833 832 851 
4 853 834 833 852 
4 854 835 834 853 
4 856 837 836 855 
4 857 838 837 856 
4 858 839 838 857 
4 859 840 839 858 
4 860 841 840 859 
4 861 842 841 860 
4 862 843 842 861 
4 863 844 843 862 
4 864 845 844 863 
4 865 846 845 864 
4 866 847 846 865 
4 867 848 847 866 
4 868 849 848 867 
4 869 850 849 868 
4 870 851 850 869 
4 871 852 851 870 
4 872 853 852 871 
4 873 854 853 872 
4 875 856 855 874 
4 876 857 856 875 
4 877 858 857 876 
4 878 859 858 877 
4 879 860 859 878 
4 880 861 860 879 
4 881 862 861 880 
4 882 863 862 881 
4 883 864 863 882 
4 884 865 864 883 
4 885 866 865 884 
4 886 867 866 885 
4 887 868 867 886 
4 888 869 868 887 
4 889 870 869 888 
4 890 871 870 889 
4 891 872 871 890 
4 892 873 872 891 
4 894 875 874 893 
4 895 876 875 894 
4 896 877 876 895 
4 897 878 877 896 
4 898 879 878 897 
4 899 880 879 898 
4 900 881 880 899 
4 901 882 881 900 
4 902 883 882 901 
4 903 884 883 902 
4 904 885 884 903 
4 905 886 885 904 
4 906 887 886 905 
4 907 888 887 906 
4 908 889 888 907 
4 909 890 889 908 
4 910 891 890 909 
4 911 892 891 910 
4 913 894 893 912 
4 914 895 894 913 
4 915 896 895 914 
4 916 897 896 915 
4 917 898 897 916 
4 918 899 898 917 
4 919 900 899 918 
4 920 901 900 919 
4 921 902 901 920 
4 922 903 902 921 
4 923 904 903 922 
4 924 905 904 923 
4 925 906 905 924 
4 926 907 906 925 
4 927 908 907 926 
4 928 909 908 927 
4 929 910 909 928 
4 930 911 910 929 
4 932 913 912 931 
4 933 914 913 932 
4 934 915 914 933 
4 935 916 915 934 
4 936 917 916 935 
4 937 918 917 936 
4 938 919 918 937 
4 939 920 919 938 
4 940 921 920 939 
4 941 922 921 940 
4 942 923 922 941 
4 943 924 923 942 
4 944 925 924 943 
4 945 926 925 944 
4 946 927 926 945 
4 947 928 927 946 
4 948 929 928 947 
4 949 930 929 948 
4 951 932 931 950 
4 952 933 932 951 
4 953 934 933 952 
4 954 935 934 953 
4 955 936 935 954 
4 956 937 936 955 
4 957 938 937 956 
4 958 939 938 957 
4 959 940 939 958 
4 960 941 940 959 
4 961 942 941 960 
4 962 943 942 961 
4 963 944 943 962 
4 964 945 944 963 
4 965 946 945 964 
4 966 947 946 965 
4 967 948 947 966 
4 968 949 948 967 
4 970 951 950 969 
4 971 952 951 970 
4 972 953 952 971 
4 973 954 953 972 
4 974 955 954 973 
4 975 956 955 974 
4 976 957 956 975 
4 977 958 957 976 
4 978 959 958 977 
4 979 960 959 978 
4 980 961 960 979 
4 981 962 961 980 
4 982 963 962 981 
4 983 964 963 982 
4 984 965 964 983 
4 985 966 965 984 
4 986 967 966 985 
4 987 968 967 986 
4 989 970 969 988 
4 990 971 970 989 
4 991 972 971 990 
4 992 973 972 991 
4 993 974 973 992 
4 994 975 974 993 
4 995 976 975 994 
4 996 977 976 995 
4 997 978 977 996 
4 998 979 978 997 
4 999 980 979 998 
4 1000 981 980 999 
4 1001 982 981 1000 
4 1002 983 982 1001 
4 1003 984 983 1002 
4 1004 985 984 1003 
4 1005 986 985 1004 
4 1006 987 986 1005 
4 1008 989 988 1007 
4 1009 990 989 1008 
4 1010 991 990 1009 
4 1011 992 991 1010 
4 1012 993 992 1011 
4 1013 994 993 1012 
4 1014 995 994 1013 
4 1015 996 995 1014 
4 1016 997 996 1015 
4 1017 998 997 1016 
4 1018 999 998 1017 
4 1019 1000 999 1018 
4 1020 1001 1000 1019 
4 1021 1002 1001 1020 
4 1022 1003 1002 1021 
4 1023 1004 1003 1022 
4 1024 1005 1004 1023 
4 1025 1006 1005 1024 
4 1027 1008 1007 1026 
4 1028 1009 1008 1027 
4 1029 1010 1009 1028 
4 1030 1011 1010 1029 
4 1031 1012 1011 1030 
4 1032 1013 1012 1031 
4 1033 1014 1013 1032 
4 1034 1015 1014 1033 
4 1035 1016 1015 1034 
4 1036 1017 1016 1035 
4 1037 1018 1017 1036 
4 1038 1019 1018 1037 
4 1039 1020 1019 1038 
4 1040 1021 1020 1039 
4 1041 1022 1021 1040 
4 1042 1023 1022 1041 
4 1043 1024 1023 1042 
4 1044 1025 1024 1043 
4 1046 1027 1026 1045 
4 1047 1028 1027 1046 
4 1048 1029 1028 1047 
4 1049 1030 1029 1048 
4 1050 1031 1030 1049 
4 1051 1032 1031 1050 
4 1052 1033 1032 1051 
4 1053 1034 1033 1052 
4 1054 1035 1034 1053 
4 1055 1036 1035 1054 
4 1056 1037 1036 1055 
4 1057 1038 1037 1056 
4 1058 1039 1038 1057 
4 1059 1040 1039 1058 
4 1060 1041 1040 1059 
4 1061 1042 1041 1060 
4 1062 1043 1042 1061 
4 1063 1044 1043 1062 
4 1065 1046 1045 1064 
4 1066 1047 1046 1065 
4 1067 1048 1047 1066 
4 1068 1049 1048 1067 
4 1069 1050 1049 1068 
4 1070 1051 1050 1069 
4 1071 1052 1051 1070 
4 1072 1053 1052 1071 
4 1073 1054 1053 1072 
4 1074 1055 1054 1073 
4 1075 1056 1055 1074 
4 1076 1057 1056 1075 
4 1077 1058 1057 1076 
4 1078 1059 1058 1077 
4 1079 1060 1059 1078 
4 1080 1061 1060 1079 
4 1081 1062 1061 1080 
4 1082 1063 1062 1081 
4 1084 1065 1064 1083 
4 1085 1066 1065 1084 
4 1086 1067 1066 1085 
4 1087 1068 1067 1086 
4 1088 1069 1068 1087 
4 1089 1070 1069 1088 
4 1090 1071 1070 1089 
4 1091 1072 1071 1090 
4 1092 1073 1072 1091 
4 1093 1074 1073 1092 
4 1094 1075 1074 1093 
4 1095 1076 1075 1094 
4 1096 1077 1076 1095 
4 1097 1078 1077 1096 
4 1098 1079 1078 1097 
4 1099 1080 1079 1098 
4 1100 1081 1080 1099 
4 1101 1082 1081 1100 
4 1103 1084 1083 1102 
4 1104 1085 1084 1103 
4 1105 1086 1085 1104 
4 1106 1087 1086 1105 
4 1107 1088 1087 1106 
4 1108 1089 1088 1107 
4 1109 1090 1089 1108 
4 1110 1091 1090 1109 
4 1111 1092 1091 1110 
4 1112 1093 1092 1111 
4 1113 1094 1093 1112 
4 1114 1095 1094 1113 
4 1115 1096 1095 1114 
4 1116 1097 1096 1115 
4 1117 1098 1097 1116 
4 1118 1099 1098 1117 
4 1119 1100 1099 1118 
4 1120 1101 1100 1119 
4 1122 1103 1102 1121 
4 1123 1104 1103 1122 
4 1124 1105 1104 1123 
4 1125 1106 1105 1124 
4 1126 1107 1106 1125 
4 1127 1108 1107 1126 
4 1128 1109 1108 1127 
4 1129 1110 1109 1128 
4 1130 1111 1110 1129 
4 1131 1112 1111 1130 
4 1132 1113 1112 1131 
4 1133 1114 1113 1132 
4 1134 1115 1114 1133 
4 1135 1116 1115 1134 
4 1136 1117 1116 1135 
4 1137 1118 1117 1136 
4 1138 1119 1118 1137 
4 1139 1120 1119 1138 
4 1141 1122 1121 1140 
4 1142 1123 1122 1141 
4 1143 1124 1123 1142 
4 1144 1125 1124 1143 
4 1145 1126 1125 1144 
4 1146 1127 1126 1145 
4 1147 1128 1127 1146 
4 1148 1129 1128 1147 
4 1149 1130 1129 1148 
4 1150 1131 1130 1149 
4 1151 1132 1131 1150 
4 1152 1133 1132 1151 
4 1153 1134 1133 1152 
4 1154 1135 1134 1153 
4 1155 1136 1135 1154 
4 1156 1137 1136 1155 
4 1157 1138 1137 1156 
4 1158 1139 1138 1157 
4 1160 1141 1140 1159 
4 1161 1142 1141 1160 
4 1162 1143 1142 1161 
4 1163 1144 1143 1162 
4 1164 1145 1144 1163 
4 1165 1146 1145 1164 
4 1166 1147 1146 1165 
4 1167 1148 1147 1166 
4 1168 1149 1148 1167 
4 1169 1150 1149 1168 
4 1170 1151 1150 1169 
4 1171 1152 1151 1170 
4 1172 1153 1152 1171 
4 1173 1154 1153 1172 
4 1174 1155 1154 1173 
4 1175 1156 1155 1174 
4 1176 1157 1156 1175 
4 1177 1158 1157 1176 
4 1179 1160 1159 1178 
4 1180 1161 1160 1179 
4 1181 1162 1161 1180 
4 1182 1163 1162 1181 
4 1183 1164 1163 1182 
4 1184 1165 1164 1183 
4 1185 1166 1165 1184 
4 1186 1167 1166 1185 
4 1187 1168 1167 1186 
4 1188 1169 1168 1187 
4 1189 1170 1169 1188 
4 1190 1171 1170 1189 
4 1191 1172 1171 1190 
4 1192 1173 1172 1191 
4 1193 1174 1173 1192 
4 1194 1175 1174 1193 
4 1195 1176 1175 1194 
4 1196 1177 1176 1195 
4 1198 1179 1178 1197 
4 1199 1180 1179 1198 
4 1200 1181 1180 1199 
4 1201 1182 1181 1200 
4 1202 1183 1182 1201 
4 1203 1184 1183 1202 
4 1204 1185 1184 1203 
4 1205 1186 1185 1204 
4 1206 1187 1186 1205 
4 1207 1188 1187 1206 
4 1208 1189 1188 1207 
4 1209 1190 1189 1208 
4 1210 1191 1190 1209 
4 1211 1192 1191 1210 
4 1212 1193 1192 1211 
4 1213 1194 1193 1212 
4 1214 1195 1194 1213 
4 1215 1196 1195 1214 
4 1217 1198 1197 1216 
4 1218 1199 1198 1217 
4 1219 1200 1199 1218 
4 1220 1201 1200 1219 
4 1221 1202 1201 1220 
4 1222 1203 1202 1221 
4 1223 1204 1203 1222 
4 1224 1205 1204 1223 
4 1225 1206 1205 1224 
4 1226 1207 1206 1225 
4 1227 1208 1207 1226 
4 1228 1209 1208 1227 
4 1229 1210 1209 1228 
4 1230 1211 1210 1229 
4 1231 1212 1211 1230 
4 1232 1213 1212 1231 
4 1233 1214 1213 1232 
4 1234 1215 1214 1233 
4 1236 1217 1216 1235 
4 1237 1218 1217 1236 
4 1238 1219 1218 1237 
4 1239 1220 1219 1238 
4 1240 1221 1220 1239 
4 1241 1222 1221 1240 
4 1242 1223 1222 1241 
4 1243 1224 1223 1242 
4 1244 1225 1224 1243 
4 1245 1226 1225 1244 
4 1246 1227 1226 1245 
4 1247 1228 1227 1246 
4 1248 1229 1228 1247 
4 1249 1230 1229 1248 
4 1250 1231 1230 1249 
4 1251 1232 1231 1250 
4 1252 1233 1232 1251 
4 1253 1234 1233 1252 
4 1255 1236 1235 1254 
4 1256 1237 1236 1255 
4 1257 1238 1237 1256 
4 1258 1239 1238 1257 
4 1259 1240 1239 1258 
4 1260 1241 1240 1259 
4 1261 1242 1241 1260 
4 1262 1243 1242 1261 
4 1263 1244 1243 1262 
4 1264 1245 1244 1263 
4 1265 1246 1245 1264 
4 1266 1247 1246 1265 
4 1267 1248 1247 1266 
4 1268 1249 1248 1267 
4 1269 1250 1249 1268 
4 1270 1251 1250 1269 
4 1271 1252 1251 1270 
4 1272 1253 1252 1271 
4 1274 1255 1254 1273 
4 1275 1256 1255 1274 
4 1276 1257 1256 1275 
4 1277 1258 1257 1276 
4 1278 1259 1258 1277 
4 1279 1260 1259 1278 
4 1280 1261 1260 1279 
4 1281 1262 1261 1280 
4 1282 1263 1262 1281 
4 1283 1264 1263 1282 
4 1284 1265 1264 1283 
4 1285 1266 1265 1284 
4 1286 1267 1266 1285 
4 1287 1268 1267 1286 
4 1288 1269 1268 1287 
4 1289 1270 1269 1288 
4 1290 1271 1270 1289 
4 1291 1272 1271 1290 
4 1293 1274 1273 1292 
4 1294 1275 1274 1293 
4 1295 1276 1275 1294 
4 1296 1277 1276 1295 
4 1297 1278 1277 1296 
4 1298 1279 1278 1297 
4 1299 1280 1279 1298 
4 1300 1281 1280 1299 
4 1301 1282 1281 1300 
4 1302 1283 1282 1301 
4 1303 1284 1283 1302 
4 1304 1285 1284 1303 
4 1305 1286 1285 1304 
4 1306 1287 1286 1305 
4 1307 1288 1287 1306 
4 1308 1289 1288 1307 
4 1309 1290 1289 1308 
4 1310 1291 1290 1309 
4 1312 1293 1292 1311 
4 1313 1294 1293 1312 
4 1314 1295 1294 1313 
4 1315 1296 1295 1314 
4 1316 1297 1296 1315 
4 1317 1298 1297 1316 
4 1318 1299 1298 1317 
4 1319 1300 1299 1318 
4 1320 1301 1300 1319 
4 1321 1302 1301 1320 
4 1322 1303 1302 1321 
4 1323 1304 1303 1322 
4 1324 1305 1304 1323 
4 1325 1306 1305 1324 
4 1326 1307 1306 1325 
4 1327 1308 1307 1326 
4 1328 1309 1308 1327 
4 1329 1310 1309 1328 
4 1331 1312 1311 1330 
4 1332 1313 1312 1331 
4 1333 1314 1313 1332 
4 1334 1315 1314 1333 
4 1335 1316 1315 1334 
4 1336 1317 1316 1335 
4 1337 1318 1317 1336 
4 1338 1319 1318 1337 
4 1339 1320 1319 1338 
4 1340 1321 1320 1339 
4 1341 1322 1321 1340 
4 1342 1323 1322 1341 
4 1343 1324 1323 1342 
4 1344 1325 1324 1343 
4 1345 1326 1325 1344 
4 1346 1327 1326 1345 
4 1347 1328 1327 1346 
4 1348 1329 1328 1347 
4 1350 1331 1330 1349 
4 1351 1332 1331 1350 
4 1352 1333 1332 1351 
4 1353 1334 1333 1352 
4 1354 1335 1334 1353 
4 1355 1336 1335 1354 
4 1356 1337 1336 1355 
4 1357 1338 1337 1356 
4 1358 1339 1338 1357 
4 1359 1340 1339 1358 
4 1360 1341 1340 1359 
4 1361 1342 1341 1360 
4 1362 1343 1342 1361 
4 1363 1344 1343 1362 
4 1364 1345 1344 1363 
4 1365 1346 1345 1364 
4 1366 1347 1346 1365 
4 1367 1348 1347 1366 
4 1369 1350 1349 1368 
4 1370 1351 1350 1369 
4 1371 1352 1351 1370 
4 1372 1353 1352 1371 
4 1373 1354 1353 1372 
4 1374 1355 1354 1373 
4 1375 1356 1355 1374 
4 1376 1357 1356 1375 
4 1377 1358 1357 1376 
4 1378 1359 1358 1377 
4 1379 1360 1359 1378 
4 1380 1361 1360 1379 
4 1381 1362 1361 1380 
4 1382 1363 1362 1381 
4 1383 1364 1363 1382 
4 1384 1365 1364 1383 
4 1385 1366 1365 1384 
4 1386 1367 1366 1385 
4 1388 1369 1368 1387 
4 1389 1370 1369 1388 
4 1390 1371 1370 1389 
4 1391 1372 1371 1390 
4 1392 1373 1372 1391 
4 1393 1374 1373 1392 
4 1394 1375 1374 1393 
4 1395 1376 1375 1394 
4 1396 1377 1376 1395 
4 1397 1378 1377 1396 
4 1398 1379 1378 1397 
4 1399 1380 1379 1398 
4 1400 1381 1380 1399 
4 1401 1382 1381 1400 
4 1402 1383 1382 1401 
4 1403 1384 1383 1402 
4 1404 1385 1384 1403 
4 1405 1386 1385 1404 
4 1407 1388 1387 1406 
4 1408 1389 1388 1407 
4 1409 1390 1389 1408 
4 1410 1391 1390 1409 
4 1411 1392 1391 1410 
4 1412 1393 1392 1411 
4 1413 1394 1393 1412 
4 1414 1395 1394 1413 
4 1415 1396 1395 1414 
4 1416 1397 1396 1415 
4 1417 1398 1397 1416 
4 1418 1399 1398 1417 
4 1419 1400 1399 1418 
4 1420 1401 1400 1419 
4 1421 1402 1401 1420 
4 1422 1403 1402 1421 
4 1423 1404 1403 1422 
4 1424 1405 1404 1423 
4 1426 1407 1406 1425 
4 1427 1408 1407 1426 
4 1428 1409 1408 1427 
4 1429 1410 1409 1428 
4 1430 1411 1410 1429 
4 1431 1412 1411 1430 
4 1432 1413 1412 1431 
4 1433 1414 1413 1432 
4 1434 1415 1414 1433 
4 1435 1416 1415 1434 
4 1436 1417 1416 1435 
4 1437 1418 1417 1436 
4 1438 1419 1418 1437 
4 1439 1420 1419 1438 
4 1440 1421 1420 1439 
4 1441 1422 1421 1440 
4 1442 1423 1422 1441 
4 1443 1424 1423 1442 
4 1445 1426 1425 1444 
4 1446 1427 1426 1445 
4 1447 1428 1427 1446 
4 1448 1429 1428 1447 
4 1449 1430 1429 1448 
4 1450 1431 1430 1449 
4 1451 1432 1431 1450 
4 1452 1433 1432 1451 
4 1453 1434 1433 1452 
4 1454 1435 1434 1453 
4 1455 1436 1435 1454 
4 1456 1437 1436 1455 
4 1457 1438 1437 1456 
4 1458 1439 1438 1457 
4 1459 1440 1439 1458 
4 1460 1441 1440 1459 
4 1461 1442 1441 1460 
4 1462 1443 1442 1461 
4 1464 1445 1444 1463 
4 1465 1446 1445 1464 
4 1466 1447 1446 1465 
4 1467 1448 1447 1466 
4 1468 1449 1448 1467 
4 1469 1450 1449 1468 
4 1470 1451 1450 1469 
4 1471 1452 1451 1470 
4 1472 1453 1452 1471 
4 1473 1454 1453 1472 
4 1474 1455 1454 1473 
4 1475 1456 1455 1474 
4 1476 1457 1456 1475 
4 1477 1458 1457 1476 
4 1478 1459 1458 1477 
4 1479 1460 1459 1478 
4 1480 1461 1460 1479 
4 1481 1462 1461 1480 
4 1483 1464 1463 1482 
4 1484 1465 1464 1483 
4 1485 1466 1465 1484 
4 1486 1467 1466 1485 
4 1487 1468 1467 1486 
4 1488 1469 1468 1487 
4 1489 1470 1469 1488 
4 1490 1471 1470 1489 
4 1491 1472 1471 1490 
4 1492 1473 1472 1491 
4 1493 1474 1473 1492 
4 1494 1475 1474 1493 
4 1495 1476 1475 1494 
4 1496 1477 1476 1495 
4 1497 1478 1477 1496 
4 1498 1479 1478 1497 
4 1499 1480 1479 1498 
4 1500 1481 1480 1499 
4 1502 1483 1482 1501 
4 1503 1484 1483 1502 
4 1504 1485 1484 1503 
4 1505 1486 1485 1504 
4 1506 1487 1486 1505 
4 1507 1488 1487 1506 
4 1508 1489 1488 1507 
4 1509 1490 1489 1508 
4 1510 1491 1490 1509 
4 1511 1492 1491 1510 
4 1512 1493 1492 1511 
4 1513 1494 1493 1512 
4 1514 1495 1494 1513 
4 1515 1496 1495 1514 
4 1516 1497 1496 1515 
4 1517 1498 1497 1516 
4 1518 1499 1498 1517 
4 1519 1500 1499 1518 
4 1521 1502 1501 1520 
4 1522 1503 1502 1521 
4 1523 1504 1503 1522 
4 1524 1505 1504 1523 
4 1525 1506 1505 1524 
4 1526 1507 1506 1525 
4 1527 1508 1507 1526 
4 1528 1509 1508 1527 
4 1529 1510 1509 1528 
4 1530 1511 1510 1529 
4 1531 1512 1511 1530 
4 1532 1513 1512 1531 
4 1533 1514 1513 1532 
4 1534 1515 1514 1533 
4 1535 1516 1515 1534 
4 1536 1517 1516 1535 
4 1537 1518 1517 1536 
4 1538 1519 1518 1537 
4 1540 1521 1520 1539 
4 1541 1522 1521 1540 
4 1542 1523 1522 1541 
4 1543 1524 1523 1542 
4 1544 1525 1524 1543 
4 1545 1526 1525 1544 
4 1546 1527 1526 1545 
4 1547 1528 1527 1546 
4 1548 1529 1528 1547 
4 1549 1530 1529 1548 
4 1550 1531 1530 1549 
4 1551 1532 1531 1550 
4 1552 1533 1532 1551 
4 1553 1534 1533 1552 
4 1554 1535 1534 1553 
4 1555 1536 1535 1554 
4 1556 1537 1536 1555 
4 1557 1538 1537 1556 
4 1559 1540 1539 1558 
4 1560 1541 1540 1559 
4 1561 1542 1541 1560 
4 1562 1543 1542 1561 
4 1563 1544 1543 1562 
4 1564 1545 1544 1563 
4 1565 1546 1545 1564 
4 1566 1547 1546 1565 
4 1567 1548 1547 1566 
4 1568 1549 1548 1567 
4 1569 1550 1549 1568 
4 1570 1551 1550 1569 
4 1571 1552 1551 1570 
4 1572 1553 1552 1571 
4 1573 1554 1553 1572 
4 1574 1555 1554 1573 
4 1575 1556 1555 1574 
4 1576 1557 1556 1575 
4 1578 1559 1558 1577 
4 1579 1560 1559 1578 
4 1580 1561 1560 1579 
4 1581 1562 1561 1580 
4 1582 1563 1562 1581 
4 1583 1564 1563 1582 
4 1584 1565 1564 1583 
4 1585 1566 1565 1584 
4 1586 1567 1566 1585 
4 1587 1568 1567 1586 
4 1588 1569 1568 1587 
4 1589 1570 1569 1588 
4 1590 1571 1570 1589 
4 1591 1572 1571 1590 
4 1592 1573 1572 1591 
4 1593 1574 1573 1592 
4 1594 1575 1574 1593 
4 1595 1576 1575 1594 
4 1597 1578 1577 1596 
4 1598 1579 1578 1597 
4 1599 1580 1579 1598 
4 1600 1581 1580 1599 
4 1601 1582 1581 1600 
4 1602 1583 1582 1601 
4 1603 1584 1583 1602 
4 1604 1585 1584 1603 
4 1605 1586 1585 1604 
4 1606 1587 1586 1605 
4 1607 1588 1587 1606 
4 1608 1589 1588 1607 
4 1609 1590 1589 1608 
4 1610 1591 1590 1609 
4 1611 1592 1591 1610 
4 1612 1593 1592 1611 
4 1613 1594 1593 1612 
4 1614 1595 1594 1613 
4 1616 1597 1596 1615 
4 1617 1598 1597 1616 
4 1618 1599 1598 1617 
4 1619 1600 1599 1618 
4 1620 1601 1600 1619 
4 1621 1602 1601 1620 
4 1622 1603 1602 1621 
4 1623 1604 1603 1622 
4 1624 1605 1604 1623 
4 1625 1606 1605 1624 
4 1626 1607 1606 1625 
4 1627 1608 1607 1626 
4 1628 1609 1608 1627 
4 1629 1610 1609 1628 
4 1630 1611 1610 1629 
4 1631 1612 1611 1630 
4 1632 1613 1612 1631 
4 1633 1614 1613 1632 
4 1635 1616 1615 1634 
4 1636 1617 1616 1635 
4 1637 1618 1617 1636 
4 1638 1619 1618 1637 
4 1639 1620 1619 1638 
4 1640 1621 1620 1639 
4 1641 1622 1621 1640 
4 1642 1623 1622 1641 
4 1643 1624 1623 1642 
4 1644 1625 1624 1643 
4 1645 1626 1625 1644 
4 1646 1627 1626 1645 
4 1647 1628 1627 1646 
4 1648 1629 1628 1647 
4 1649 1630 1629 1648 
4 1650 1631 1630 1649 
4 1651 1632 1631 1650 
4 1652 1633 1632 1651 
4 1654 1635 1634 1653 
4 1655 1636 1635 1654 
4 1656 1637 1636 1655 
4 1657 1638 1637 1656 
4 1658 1639 1638 1657 
4 1659 1640 1639 1658 
4 1660 1641 1640 1659 
4 1661 1642 1641 1660 
4 1662 1643 1642 1661 
4 1663 1644 1643 1662 
4 1664 1645 1644 1663 
4 1665 1646 1645 1664 
4 1666 1647 1646 1665 
4 1667 1648 1647 1666 
4 1668 1649 1648 1667 
4 1669 1650 1649 1668 
4 1670 1651 1650 1669 
4 1671 1652 1651 1670 
4 1673 1654 1653 1672 
4 1674 1655 1654 1673 
4 1675 1656 1655 1674 
4 1676 1657 1656 1675 
4 1677 1658 1657 1676 
4 1678 1659 1658 1677 
4 1679 1660 1659 1678 
4 1680 1661 1660 1679 
4 1681 1662 1661 1680 
4 1682 1663 1662 1681 
4 1683 1664 1663 1682 
4 1684 1665 1664 1683 
4 1685 1666 1665 1684 
4 1686 1667 1666 1685 
4 1687 1668 1667 1686 
4 1688 1669 1668 1687 
4 1689 1670 1669 1688 
4 1690 1671 1670 1689 
4 1692 1673 1672 1691 
4 1693 1674 1673 1692 
4 1694 1675 1674 1693 
4 1695 1676 1675 1694 
4 1696 1677 1676 1695 
4 1697 1678 1677 1696 
4 1698 1679 1678 1697 
4 1699 1680 1679 1698 
4 1700 1681 1680 1699 
4 1701 1682 1681 1700 
4 1702 1683 1682 1701 
4 1703 1684 1683 1702 
4 1704 1685 1684 1703 
4 1705 1686 1685 1704 
4 1706 1687 1686 1705 
4 1707 1688 1687 1706 
4 1708 1689 1688 1707 
4 1709 1690 1689 1708 
4 1711 1692 1691 1710 
4 1712 1693 1692 1711 
4 1713 1694 1693 1712 
4 1714 1695 1694 1713 
4 1715 1696 1695 1714 
4 1716 1697 1696 1715 
4 1717 1698 1697 1716 
4 1718 1699 1698 1717 
4 1719 1700 1699 1718 
4 1720 1701 1700 1719 
4 1721 1702 1701 1720 
4 1722 1703 1702 1721 
4 1723 1704 1703 1722 
4 1724 1705 1704 1723 
4 1725 1706 1705 1724 
4 1726 1707 1706 1725 
4 1727 1708 1707 1726 
4 1728 1709 1708 1727 
4 1730 1711 1710 1729 
4 1731 1712 1711 1730 
4 1732 1713 1712 1731 
4 1733 1714 1713 1732 
4 1734 1715 1714 1733 
4 1735 1716 1715 1734 
4 1736 1717 1716 1735 
4 1737 1718 1717 1736 
4 1738 1719 1718 1737 
4 1739 1720 1719 1738 
4 1740 1721 1720 1739 
4 1741 1722 1721 1740 
4 1742 1723 1722 1741 
4 1743 1724 1723 1742 
4 1744 1725 1724 1743 
4 1745 1726 1725 1744 
4 1746 1727 1726 1745 
4 1747 1728 1727 1746 
4 1749 1730 1729 1748 
4 1750 1731 1730 1749 
4 1751 1732 1731 1750 
4 1752 1733 1732 1751 
4 1753 1734 1733 1752 
4 1754 1735 1734 1753 
4 1755 1736 1735 1754 
4 1756 1737 1736 1755 
4 1757 1738 1737 1756 
4 1758 1739 1738 1757 
4 1759 1740 1739 1758 
4 1760 1741 1740 1759 
4 1761 1742 1741 1760 
4 1762 1743 1742 1761 
4 1763 1744 1743 1762 
4 1764 1745 1744 1763 
4 1765 1746 1745 1764 
4 1766 1747 1746 1765 
4 1768 1749 1748 1767 
4 1769 1750 1749 1768 
4 1770 1751 1750 1769 
4 1771 1752 1751 1770 
4 1772 1753 1752 1771 
4 1773 1754 1753 1772 
4 1774 1755 1754 1773 
4 1775 1756 1755 1774 
4 1776 1757 1756 1775 
4 1777 1758 1757 1776 
4 1778 1759 1758 1777 
4 1779 1760 1759 1778 
4 1780 1761 1760 1779 
4 1781 1762 1761 1780 
4 1782 1763 1762 1781 
4 1783 1764 1763 1782 
4 1784 1765 1764 1783 
4 1785 1766 1765 1784 
4 1787 1768 1767 1786 
4 1788 1769 1768 1787 
4 1789 1770 1769 1788 
4 1790 1771 1770 1789 
4 1791 1772 1771 1790 
4 1792 1773 1772 1791 
4 1793 1774 1773 1792 
4 1794 1775 1774 1793 
4 1795 1776 1775 1794 
4 1796 1777 1776 1795 
4 1797 1778 1777 1796 
4 1798 1779 1778 1797 
4 1799 1780 1779 1798 
4 1800 1781 1780 1799 
4 1801 1782 1781 1800 
4 1802 1783 1782 1801 
4 1803 1784 1783 1802 
4 1804 1785 1784 1803 
4 1806 1787 1786 1805 
4 1807 1788 1787 1806 
4 1808 1789 1788 1807 
4 1809 1790 1789 1808 
4 1810 1791 1790 1809 
4 1811 1792 1791 1810 
4 1812 1793 1792 1811 
4 1813 1794 1793 1812 
4 1814 1795 1794 1813 
4 1815 1796 1795 1814 
4 1816 1797 1796 1815 
4 1817 1798 1797 1816 
4 1818 1799 1798 1817 
4 1819 1800 1799 1818 
4 1820 1801 1800 1819 
4 1821 1802 1801 1820 
4 1822 1803 1802 1821 
4 1823 1804 1803 1822 
4 1825 1806 1805 1824 
4 1826 1807 1806 1825 
4 1827 1808 1807 1826 
4 1828 1809 1808 1827 
4 1829 1810 1809 1828 
4 1830 1811 1810 1829 
4 1831 1812 1811 1830 
4 1832 1813 1812 1831 
4 1833 1814 1813 1832 
4 1834 1815 1814 1833 
4 1835 1816 1815 1834 
4 1836 1817 1816 1835 
4 1837 1818 1817 1836 
4 1838 1819 1818 1837 
4 1839 1820 1819 1838 
4 1840 1821 1820 1839 
4 1841 1822 1821 1840 
4 1842 1823 1822 1841 
4 1844 1825 1824 1843 
4 1845 1826 1825 1844 
4 1846 1827 1826 1845 
4 1847 1828 1827 1846 
4 1848 1829 1828 1847 
4 1849 1830 1829 1848 
4 1850 1831 1830 1849 
4 1851 1832 1831 1850 
4 1852 1833 1832 1851 
4 1853 1834 1833 1852 
4 1854 1835 1834 1853 
4 1855 1836 1835 1854 
4 1856 1837 1836 1855 
4 1857 1838 1837 1856 
4 1858 1839 1838 1857 
4 1859 1840 1839 1858 
4 1860 1841 1840 1859 
4 1861 1842 1841 1860 
4 1863 1844 1843 1862 
4 1864 1845 1844 1863 
4 1865 1846 1845 1864 
4 1866 1847 1846 1865 
4 1867 1848 1847 1866 
4 1868 1849 1848 1867 
4 1869 1850 1849 1868 
4 1870 1851 1850 1869 
4 1871 1852 1851 1870 
4 1872 1853 1852 1871 
4 1873 1854 1853 1872 
4 1874 1855 1854 1873 
4 1875 1856 1855 1874 
4 1876 1857 1856 1875 
4 1877 1858 1857 1876 
4 1878 1859 1858 1877 
4 1879 1860 1859 1878 
4 1880 1861 1860 1879 
4 1882 1863 1862 1881 
4 1883 1864 1863 1882 
4 1884 1865 1864 1883 
4 1885 1866 1865 1884 
4 1886 1867 1866 1885 
4 1887 1868 1867 1886 
4 1888 1869 1868 1887 
4 1889 1870 1869 1888 
4 1890 1871 1870 1889 
4 1891 1872 1871 1890 
4 1892 1873 1872 1891 
4 1893 1874 1873 1892 
4 1894 1875 1874 1893 
4 1895 1876 1875 1894 
4 1896 1877 1876 1895 
4 1897 1878 1877 1896 
4 1898 1879 1878 1897 
4 1899 1880 1879 1898 
4 1901 1882 1881 1900 
4 1902 1883 1882 1901 
4 1903 1884 1883 1902 
4 1904 1885 1884 1903 
4 1905 1886 1885 1904 
4 1906 1887 1886 1905 
4 1907 1888 1887 1906 
4 1908 1889 1888 1907 
4 1909 1890 1889 1908 
4 1910 1891 1890 1909 
4 1911 1892 1891 1910 
4 1912 1893 1892 1911 
4 1913 1894 1893 1912 
4 1914 1895 1894 1913 
4 1915 1896 1895 1914 
4 1916 1897 1896 1915 
4 1917 1898 1897 1916 
4 1918 1899 1898 1917 
CELL_DATA 1800
SCALARS ElementID int 1
LOOKUP_TABLE default
0
1
2
3
4
5
6
7
8
9
10
11
12
13
14
15
16
17
18
19
20
21
22
23
24
25
26
27
28
29
30
31
32
33
34
35
36
37
38
39
40
41
42
43
44
45
46
47
48
49
50
51
52
53
54
55
56
57
58
59
60
61
62
63
64
65
66
67
68
69
70
71
72
73
74
75
76
77
78
79
80
81
82
83
84
85
86
87
88
89
90
91
92
93
94
95
96
97
98
99
100
101
102
103
104
105
106
107
108
109
110
111
112
113
114
115
116
117
118
119
120
121
122
123
124
125
126
127
128
129
130
131
132
133
134
135
136
137
138
139
140
141
142
143
144
145
146
147
148
149
150
151
152
153
154
155
156
157
158
159
160
161
162
163
164
165
166
167
168
169
170
171
172
173
174
175
176
177
178
179
180
181
182
183
184
185
186
187
188
189
190
191
192
193
194
195
196
197
198
199
200
201
202
203
204
205
206
207
208
209
210
211
212
213
214
215
216
217
218
219
220
221
222
223
224
225
226
227
228
229
230
231
232
233
234
235
236
237
238
239
240
241
242
243
244
245
246
247
248
249
250
251
252
253
254
255
256
257
258
259
260
261
262
263
264
265
266
267
268
269
270
271
272
273
274
275
276
277
278
279
280
281
282
283
284
285
286
287
288
289
290
291
292
293
294
295
296
297
298
299
300
301
302
303
304
305
306
307
308
309
310
311
312
313
314
315
316
317
318
319
320
321
322
323
324
325
326
327
328
329
330
331
332
333
334
335
336
337
338
339
340
341
342
343
344
345
346
347
348
349
350
351
352
353
354
355
356
357
358
359
360
361
362
363
364
365
366
367
368
369
370
371
372
373
374
375
376
377
378
379
380
381
382
383
384
385
386
387
388
389
390
391
392
393
394
395
396
397
398
399
400
401
402
403
404
405
406
407
408
409
410
411
412
413
414
415
416
417
418
419
420
421
422
423
424
425
426
427
428
429
430
431
432
433
434
435
436
437
438
439
440
441
442
443
444
445
446
447
448
449
450
451
452
453
454
455
456
457
458
459
460
461
462
463
464
465
466
467
468
469
470
471
472
473
474
475
476
477
478
479
480
481
482
483
484
485
486
487
488
489
490
491
492
493
494
495
496
497
498
499
500
501
502
503
504
505
506
507
508
509
510
511
512
513
514
515
516
517
518
519
520
521
522
523
524
525
526
527
528
529
530
531
532
533
534
535
536
537
538
539
540
541
542
543
544
545
546
547
548
549
550
551
552
553
554
555
556
557
558
559
560
561
562
563
564
565
566
567
568
569
570
571
572
573
574
575
576
577
578
579
580
581
582
583
584
585
586
587
588
589
590
591
592
593
594
595
596
597
598
599
600
601
602
603
604
605
606
607
608
609
610
611
612
613
614
615
616
617
618
619
620
621
622
623
624
625
626
627
628
629
630
631
632
633
634
635
636
637
638
639
640
641
642
643
644
645
646
647
648
649
650
651
652
653
654
655
656
657
658
659
660
661
662
663
664
665
666
667
668
669
670
671
672
673
674
675
676
677
678
679
680
681
682
683
684
685
686
687
688
689
690
691
692
693
694
695
696
697
698
699
700
701
702
703
704
705
706
707
708
709
710
711
712
713
714
715
716
717
718
719
720
721
722
723
724
725
726
727
728
729
730
731
732
733
734
735
736
737
738
739
740
741
742
743
744
745
746
747
748
749
750
751
752
753
754
755
756
757
758
759
760
761
762
763
764
765
766
767
768
769
770
771
772
773
774
775
776
777
778
779
780
781
782
783
784
785
786
787
788
789
790
791
792
793
794
795
796
797
798
799
800
801
802
803
804
805
806
807
808
809
810
811
812
813
814
815
816
817
818
819
820
821
822
823
824
825
826
827
828
829
830
831
832
833
834
835
836
837
838
839
840
841
842
843
844
845
846
847
848
849
850
851
852
853
854
855
856
857
858
859
860
861
862
863
864
865
866
867
868
869
870
871
872
873
874
875
876
877
878
879
880
881
882
883
884
885
886
887
888
889
890
891
892
893
894
895
896
897
898
899
900
901
902
903
904
905
906
907
908
909
910
911
912
913
914
915
916
917
918
919
920
921
922
923
924
925
926
927
928
929
930
931
932
933
934
935
936
937
938
939
940
941
942
943
944
945
946
947
948
949
950
951
952
953
954
955
956
957
958
959
960
961
962
963
964
965
966
967
968
969
970
971
972
973
974
975
976
977
978
979
980
981
982
983
984
985
986
987
988
989
990
991
992
993
994
995
996
997
998
999
1000
1001
1002
1003
1004
1005
1006
1007
1008
1009
1010
1011
1012
1013
1014
1015
1016
1017
1018
1019
1020
1021
1022
1023
1024
1025
1026
1027
1028
1029
1030
1031
1032
1033
1034
1035
1036
1037
1038
1039
1040
1041
1042
1043
1044
1045
1046
1047
1048
1049
1050
1051
1052
1053
1054
1055
1056
1057
1058
1059
1060
1061
1062
1063
1064
1065
1066
1067
1068
1069
1070
1071
1072
1073
1074
1075
1076
1077
1078
1079
1080
1081
1082
1083
1084
1085
1086
1087
1088
1089
1090
1091
1092
1093
1094
1095
1096
1097
1098
1099
1100
1101
1102
1103
1104
1105
1106
1107
1108
1109
1110
1111
1112
1113
1114
1115
1116
1117
1118
1119
1120
1121
1122
1123
1124
1125
1126
1127
1128
1129
1130
1131
1132
1133
1134
1135
1136
1137
1138
1139
1140
1141
1142
1143
1144
1145
1146
1147
1148
1149
1150
1151
1152
1153
1154
1155
1156
1157
1158
1159
1160
1161
1162
1163
1164
1165
1166
1167
1168
1169
1170
1171
1172
1173
1174
1175
1176
1177
1178
1179
1180
1181
1182
1183
1184
1185
1186
1187
1188
1189
1190
1191
1192
1193
1194
1195
1196
1197
1198
1199
1200
1201
1202
1203
1204
1205
1206
1207
1208
1209
1210
1211
1212
1213
1214
1215
1216
1217
1218
1219
1220
1221
1222
1223
1224
1225
1226
1227
1228
1229
1230
1231
1232
1233
1234
1235
1236
1237
1238
1239
1240
1241
1242
1243
1244
1245
1246
1247
1248
1249
1250
1251
1252
1253
1254
1255
1256
1257
1258
1259
1260
1261
1262
1263
1264
1265
1266
1267
1268
1269
1270
1271
1272
1273
1274
1275
1276
1277
1278
1279
1280
1281
1282
1283
1284
1285
1286
1287
1288
1289
1290
1291
1292
1293
1294
1295
1296
1297
1298
1299
1300
1301
1302
1303
1304
1305
1306
1307
1308
1309
1310
1311
1312
1313
1314
1315
1316
1317
1318
1319
1320
1321
1322
1323
1324
1325
1326
1327
1328
1329
1330
1331
1332
1333
1334
1335
1336
1337
1338
1339
1340
1341
1342
1343
1344
1345
1346
1347
1348
1349
1350
1351
1352
1353
1354
1355
1356
1357
1358
1359
1360
1361
1362
1363
1364
1365
1366
1367
1368
1369
1370
1371
1372
1373
1374
1375
1376
1377
1378
1379
1380
1381
1382
1383
1384
1385
1386
1387
1388
1389
1390
1391
1392
1393
1394
1395
1396
1397
1398
1399
1400
1401
1402
1403
1404
1405
1406
1407
1408
1409
1410
1411
1412
1413
1414
1415
1416
1417
1418
1419
1420
1421
1422
1423
1424
1425
1426
1427
1428
1429
1430
1431
1432
1433
1434
1435
1436
1437
1438
1439
1440
1441
1442
1443
1444
1445
1446
1447
1448
1449
1450
1451
1452
1453
1454
1455
1456
1457
1458
1459
1460
1461
1462
1463
1464
1465
1466
1467
1468
1469
1470
1471
1472
1473
1474
1475
1476
1477
1478
1479
1480
1481
1482
1483
1484
1485
1486
1487
1488
1489
1490
1491
1492
1493
1494
1495
1496
1497
1498
1499
1500
1501
1502
1503
1504
1505
1506
1507
1508
1509
1510
1511
1512
1513
1514
1515
1516
1517
1518
1519
1520
1521
1522
1523
1524
1525
1526
1527
1528
1529
1530
1531
1532
1533
1534
1535
1536
1537
1538
1539
1540
1541
1542
1543
1544
1545
1546
1547
1548
1549
1550
1551
1552
1553
1554
1555
1556
1557
1558
1559
1560
1561
1562
1563
1564
1565
1566
1567
1568
1569
1570
1571
1572
1573
1574
1575
1576
1577
1578
1579
1580
1581
1582
1583
1584
1585
1586
1587
1588
1589
1590
1591
1592
1593
1594
1595
1596
1597
1598
1599
1600
1601
1602
1603
1604
1605
1606
1607
1608
1609
1610
1611
1612
1613
1614
1615
1616
1617
1618
1619
1620
1621
1622
1623
1624
1625
1626
1627
1628
1629
1630
1631
1632
1633
1634
1635
1636
1637
1638
1639
1640
1641
1642
1643
1644
1645
1646
1647
1648
1649
1650
1651
1652
1653
1654
1655
1656
1657
1658
1659
1660
1661
1662
1663
1664
1665
1666
1667
1668
1669
1670
1671
1672
1673
1674
1675
1676
1677
1678
1679
1680
1681
1682
1683
1684
1685
1686
1687
1688
1689
1690
1691
1692
1693
1694
1695
1696
1697
1698
1699
1700
1701
1702
1703
1704
1705
1706
1707
1708
1709
1710
1711
1712
1713
1714
1715
1716
1717
1718
1719
1720
1721
1722
1723
1724
1725
1726
1727
1728
1729
1730
1731
1732
1733
1734
1735
1736
1737
1738
1739
1740
1741
1742
1743
1744
1745
1746
1747
1748
1749
1750
1751
1752
1753
1754
1755
1756
1757
1758
1759
1760
1761
1762
1763
1764
1765
1766
1767
1768
1769
1770
1771
1772
1773
1774
1775
1776
1777
1778
1779
1780
1781
1782
1783
1784
1785
1786
1787
1788
1789
1790
1791
1792
1793
1794
1795
1796
1797
1798
1799

POINT_DATA 1919
SCALARS NodeID int 1
LOOKUP_TABLE my_table
0
1
2
3
4
5
6
7
8
9
10
11
12
13
14
15
16
17
18
19
20
21
22
23
24
25
26
27
28
29
30
31
32
33
34
35
36
37
38
39
40
41
42
43
44
45
46
47
48
49
50
51
52
53
54
55
56
57
58
59
60
61
62
63
64
65
66
67
68
69
70
71
72
73
74
75
76
77
78
79
80
81
82
83
84
85
86
87
88
89
90
91
92
93
94
95
96
97
98
99
100
101
102
103
104
105
106
107
108
109
110
111
112
113
114
115
116
117
118
119
120
121
122
123
124
125
126
127
128
129
130
131
132
133
134
135
136
137
138
139
140
141
142
143
144
145
146
147
148
149
150
151
152
153
154
155
156
157
158
159
160
161
162
163
164
165
166
167
168
169
170
171
172
173
174
175
176
177
178
179
180
181
182
183
184
185
186
187
188
189
190
191
192
193
194
195
196
197
198
199
200
201
202
203
204
205
206
207
208
209
210
211
212
213
214
215
216
217
218
219
220
221
222
223
224
225
226
227
228
229
230
231
232
233
234
235
236
237
238
239
240
241
242
243
244
245
246
247
248
249
250
251
252
253
254
255
256
257
258
259
260
261
262
263
264
265
266
267
268
269
270
271
272
273
274
275
276
277
278
279
280
281
282
283
284
285
286
287
288
289
290
291
292
293
294
295
296
297
298
299
300
301
302
303
304
305
306
307
308
309
310
311
312
313
314
315
316
317
318
319
320
321
322
323
324
325
326
327
328
329
330
331
332
333
334
335
336
337
338
339
340
341
342
343
344
345
346
347
348
349
350
351
352
353
354
355
356
357
358
359
360
361
362
363
364
365
366
367
368
369
370
371
372
373
374
375
376
377
378
379
380
381
382
383
384
385
386
387
388
389
390
391
392
393
394
395
396
397
398
399
400
401
402
403
404
405
406
407
408
409
410
411
412
413
414
415
416
417
418
419
420
421
422
423
424
425
426
427
428
429
430
431
432
433
434
435
436
437
438
439
440
441
442
443
444
445
446
447
448
449
450
451
452
453
454
455
456
457
458
459
460
461
462
463
464
465
466
467
468
469
470
471
472
473
474
475
476
477
478
479
480
481
482
483
484
485
486
487
488
489
490
491
492
493
494
495
496
497
498
499
500
501
502
503
504
505
506
507
508
509
510
511
512
513
514
515
516
517
518
519
520
521
522
523
524
525
526
527
528
529
530
531
532
533
534
535
536
537
538
539
540
541
542
543
544
545
546
547
548
549
550
551
552
553
554
555
556
557
558
559
560
561
562
563
564
565
566
567
568
569
570
571
572
573
574
575
576
577
578
579
580
581
582
583
584
585
586
587
588
589
590
591
592
593
594
595
596
597
598
599
600
601
602
603
604
605
606
607
608
609
610
611
612
613
614
615
616
617
618
619
620
621
622
623
624
625
626
627
628
629
630
631
632
633
634
635
636
637
638
639
640
641
642
643
644
645
646
647
648
649
650
651
652
653
654
655
656
657
658
659
660
661
662
663
664
665
666
667
668
669
670
671
672
673
674
675
676
677
678
679
680
681
682
683
684
685
686
687
688
689
690
691
692
693
694
695
696
697
698
699
700
701
702
703
704
705
706
707
708
709
710
711
712
713
714
715
716
717
718
719
720
721
722
723
724
725
726
727
728
729
730
731
732
733
734
735
736
737
738
739
740
741
742
743
744
745
746
747
748
749
750
751
752
753
754
755
756
757
758
759
760
761
762
763
764
765
766
767
768
769
770
771
772
773
774
775
776
777
778
779
780
781
782
783
784
785
786
787
788
789
790
791
792
793
794
795
796
797
798
799
800
801
802
803
804
805
806
807
808
809
810
811
812
813
814
815
816
817
818
819
820
821
822
823
824
825
826
827
828
829
830
831
832
833
834
835
836
837
838
839
840
841
842
843
844
845
846
847
848
849
850
851
852
853
854
855
856
857
858
859
860
861
862
863
864
865
866
867
868
869
870
871
872
873
874
875
876
877
878
879
880
881
882
883
884
885
886
887
888
889
890
891
892
893
894
895
896
897
898
899
900
901
902
903
904
905
906
907
908
909
910
911
912
913
914
915
916
917
918
919
920
921
922
923
924
925
926
927
928
929
930
931
932
933
934
935
936
937
938
939
940
941
942
943
944
945
946
947
948
949
950
951
952
953
954
955
956
957
958
959
960
961
962
963
964
965
966
967
968
969
970
971
972
973
974
975
976
977
978
979
980
981
982
983
984
985
986
987
988
989
990
991
992
993
994
995
996
997
998
999
1000
1001
1002
1003
1004
1005
1006
1007
1008
1009
1010
1011
1012
1013
1014
1015
1016
1017
1018
1019
1020
1021
1022
1023
1024
1025
1026
1027
1028
1029
1030
1031
1032
1033
1034
1035
1036
1037
1038
1039
1040
1041
1042
1043
1044
1045
1046
1047
1048
1049
1050
1051
1052
1053
1054
1055
1056
1057
1058
1059
1060
1061
1062
1063
1064
1065
1066
1067
1068
1069
1070
1071
1072
1073
1074
1075
1076
1077
1078
1079
1080
1081
1082
1083
1084
1085
1086
1087
1088
1089
1090
1091
1092
1093
1094
1095
1096
1097
1098
1099
1100
1101
1102
1103
1104
1105
1106
1107
1108
1109
1110
1111
1112
1113
1114
1115
1116
1117
1118
1119
1120
1121
1122
1123
1124
1125
1126
1127
1128
1129
1130
1131
1132
1133
1134
1135
1136
1137
1138
1139
1140
1141
1142
1143
1144
1145
1146
1147
1148
1149
1150
1151
1152
1153
1154
1155
1156
1157
1158
1159
1160
1161
1162
1163
1164
1165
1166
1167
1168
1169
1170
1171
1172
1173
1174
1175
1176
1177
1178
1179
1180
1181
1182
1183
1184
1185
1186
1187
1188
1189
1190
1191
1192
1193
1194
1195
1196
1197
1198
1199
1200
1201
1202
1203
1204
1205
1206
1207
1208
1209
1210
1211
1212
1213
1214
1215
1216
1217
1218
1219
1220
1221
1222
1223
1224
1225
1226
1227
1228
1229
1230
1231
1232
1233
1234
1235
1236
1237
1238
1239
1240
1241
1242
1243
1244
1245
1246
1247
1248
1249
1250
1251
1252
1253
1254
1255
1256
1257
1258
1259
1260
1261
1262
1263
1264
1265
1266
1267
1268
1269
1270
1271
1272
1273
1274
1275
1276
1277
1278
1279
1280
1281
1282
1283
1284
1285
1286
1287
1288
1289
1290
1291
1292
1293
1294
1295
1296
1297
1298
1299
1300
1301
1302
1303
1304
1305
1306
1307
1308
1309
1310
1311
1312
1313
1314
1315
1316
1317
1318
1319
1320
1321
1322
1323
1324
1325
1326
1327
1328
1329
1330
1331
1332
1333
1334
1335
1336
1337
1338
1339
1340
1341
1342
1343
1344
1345
1346
1347
1348
1349
1350
1351
1352
1353
1354
1355
1356
1357
1358
1359
1360
1361
1362
1363
1364
1365
1366
1367
1368
1369
1370
1371
1372
1373
1374
1375
1376
1377
1378
1379
1380
1381
1382
1383
1384
1385
1386
1387
1388
1389
1390
1391
1392
1393
1394
1395
1396
1397
1398
1399
1400
1401
1402
1403
1404
1405
1406
1407
1408
1409
1410
1411
1412
1413
1414
1415
1416
1417
1418
1419
1420
1421
1422
1423
1424
1425
1426
1427
1428
1429
1430
1431
1432
1433
1434
1435
1436
1437
1438
1439
1440
1441
1442
1443
1444
1445
1446
1447
1448
1449
1450
1451
1452
1453
1454
1455
1456
1457
1458
1459
1460
1461
1462
1463
1464
1465
1466
1467
1468
1469
1470
1471
1472
1473
1474
1475
1476
1477
1478
1479
1480
1481
1482
1483
1484
1485
1486
1487
1488
1489
1490
1491
1492
1493
1494
1495
1496
1497
1498
1499
1500
1501
1502
1503
1504
1505
1506
1507
1508
1509
1510
1511
1512
1513
1514
1515
1516
1517
1518
1519
1520
1521
1522
1523
1524
1525
1526
1527
1528
1529
1530
1531
1532
1533
1534
1535
1536
1537
1538
1539
1540
1541
1542
1543
1544
1545
1546
1547
1548
1549
1550
1551
1552
1553
1554
1555
1556
1557
1558
1559
1560
1561
1562
1563
1564
1565
1566
1567
1568
1569
1570
1571
1572
1573
1574
1575
1576
1577
1578
1579
1580
1581
1582
1583
1584
1585
1586
1587
1588
1589
1590
1591
1592
1593
1594
1595
1596
1597
1598
1599
1600
1601
1602
1603
1604
1605
1606
1607
1608
1609
1610
1611
1612
1613
1614
1615
1616
1617
1618
1619
1620
1621
1622
1623
1624
1625
1626
1627
1628
1629
1630
1631
1632
1633
1634
1635
1636
1637
1638
1639
1640
1641
1642
1643
1644
1645
1646
1647
1648
1649
1650
1651
1652
1653
1654
1655
1656
1657
1658
1659
1660
1661
1662
1663
1664
1665
1666
1667
1668
1669
1670
1671
1672
1673
1674
1675
1676
1677
1678
1679
1680
1681
1682
1683
1684
1685
1686
1687
1688
1689
1690
1691
1692
1693
1694
1695
1696
1697
1698
1699
1700
1701
1702
1703
1704
1705
1706
1707
1708
1709
1710
1711
1712
1713
1714
1715
1716
1717
1718
1719
1720
1721
1722
1723
1724
1725
1726
1727
1728
1729
1730
1731
1732
1733
1734
1735
1736
1737
1738
1739
1740
1741
1742
1743
1744
1745
1746
1747
1748
1749
1750
1751
1752
1753
1754
1755
1756
1757
1758
1759
1760
1761
1762
1763
1764
1765
1766
1767
1768
1769
1770
1771
1772
1773
1774
1775
1776
1777
1778
1779
1780
1781
1782
1783
1784
1785
1786
1787
1788
1789
1790
1791
1792
1793
1794
1795
1796
1797
1798
1799
1800
1801
1802
1803
1804
1805
1806
1807
1808
1809
1810
1811
1812
1813
1814
1815
1816
1817
1818
1819
1820
1821
1822
1823
1824
1825
1826
1827
1828
1829
1830
1831
1832
1833
1834
1835
1836
1837
1838
1839
1840
1841
1842
1843
1844
1845
1846
1847
1848
1849
1850
1851
1852
1853
1854
1855
1856
1857
1858
1859
1860
1861
1862
1863
1864
1865
1866
1867
1868
1869
1870
1871
1872
1873
1874
1875
1876
1877
1878
1879
1880
1881
1882
1883
1884
1885
1886
1887
1888
1889
1890
1891
1892
1893
1894
1895
1896
1897
1898
1899
1900
1901
1902
1903
1904
1905
1906
1907
1908
1909
1910
1911
1912
1913
1914
1915
1916
1917
1918