<?xml version="1.0"?>
<VTKFile type="UnstructuredGrid" version="0.1" byte_order="LittleEndian" header_type="UInt64" >
	<UnstructuredGrid>
		<Piece NumberOfPoints="196" NumberOfCells="168">
			<PointData>
				<DataArray type="UInt32" Name="NodeID" NumberOfComponents="1" format="ascii" >
0 1 2 3 4 5 6 7 8 9 10 11 12 13 14 15 16 17 18 19 20 21 22 23 24 25 26 27 28 29 30 31 32 33 34 35 36 37 38 39 40 41 42 43 44 45 46 47 48 49 50 51 52 53 54 55 56 57 58 59 60 61 62 63 64 65 66 67 68 69 70 71 72 73 74 75 76 77 78 79 80 81 82 83 84 85 86 87 88 89 90 91 92 93 94 95 96 97 98 99 100 101 102 103 104 105 106 107 108 109 110 111 112 113 114 115 116 117 118 119 120 121 122 123 124 125 126 127 128 129 130 131 132 133 134 135 136 137 138 139 140 141 142 143 144 145 146 147 148 149 150 151 152 153 154 155 156 157 158 159 160 161 162 163 164 165 166 167 168 169 170 171 172 173 174 175 176 177 178 179 180 181 182 183 184 185 186 187 188 189 190 191 192 193 194 195 
				</DataArray>
			</PointData>
			<CellData>
				<DataArray type="UInt32" Name="ElementID" NumberOfComponents="1" format="ascii" >
0 1 2 3 4 5 6 7 8 9 10 11 12 13 14 15 16 17 18 19 20 21 22 23 24 25 26 27 28 29 30 31 32 33 34 35 36 37 38 39 40 41 42 43 44 45 46 47 48 49 50 51 52 53 54 55 56 57 58 59 60 61 62 63 64 65 66 67 68 69 70 71 72 73 74 75 76 77 78 79 80 81 82 83 84 85 86 87 88 89 90 91 92 93 94 95 96 97 98 99 100 101 102 103 104 105 106 107 108 109 110 111 112 113 114 115 116 117 118 119 120 121 122 123 124 125 126 127 128 129 130 131 132 133 134 135 136 137 138 139 140 141 142 143 144 145 146 147 148 149 150 151 152 153 154 155 156 157 158 159 160 161 162 163 164 165 166 167 
				</DataArray>
				<DataArray type="UInt8" Name="Color" NumberOfComponents="1" format="ascii" >
1 2 1 2 1 2 3 4 3 4 3 4 1 2 1 2 1 2 3 4 3 4 3 4 1 2 1 2 1 2 3 4 3 4 3 4 1 2 1 2 1 2 3 4 3 4 3 4 1 2 1 2 1 2 3 4 3 4 3 4 1 2 1 2 1 2 3 4 3 4 3 4 1 2 1 2 1 2 3 4 3 4 3 4 1 2 1 2 1 2 3 4 3 4 3 4 1 2 1 2 1 2 3 4 3 4 3 4 1 2 1 2 1 2 3 4 3 4 3 4 1 2 1 2 1 2 3 4 3 4 3 4 1 2 1 2 1 2 3 4 3 4 3 4 1 2 1 2 1 2 3 4 3 4 3 4 1 2 1 2 1 2 3 4 3 4 3 4 
				</DataArray>
			</CellData>
			<Points>
				<DataArray type="Float64" Name="Points" NumberOfComponents="3" format="ascii" >
-3 -2 0 -2.24837 -1.51364 0 -1.62345 -1.10928 0 -1.12525 -0.78691 0 -0.75376 -0.54653 0 -0.508981 -0.388141 0 -0.390916 -0.311745 0 -3 -1.33333 0 -2.26553 -1.01172 0 -1.65488 -0.744328 0 -1.16805 -0.531154 0 -0.805044 -0.372198 0 -0.565854 -0.267461 0 -0.450484 -0.216942 0 -2.25 -2 0 -1.69162 -1.53645 0 -1.22738 -1.15105 0 -0.857273 -0.843798 0 -0.581297 -0.61469 0 -0.399454 -0.46373 0 -0.311745 -0.390916 0 -3 -0.666667 0 -2.27618 -0.506664 0 -1.67439 -0.373636 0 -1.19463 -0.267581 0 -0.836881 -0.188501 0 -0.601161 -0.136394 0 -0.487464 -0.11126 0 -1.5 -2 0 -1.13037 -1.55361 0 -0.823062 -1.18248 0 -0.578063 -0.8866 0 -0.395376 -0.665975 0 -0.275002 -0.520603 0 -0.216942 -0.450484 0 -3 0 0 -2.2798 5.29197e-17 0 -1.68101 9.6918e-17 0 -1.20363 1.31995e-16 0 -0.847674 1.5815e-16 0 -0.613129 1.75384e-16 0 -0.5 1.83697e-16 0 -0.75 -2 0 -0.565991 -1.56427 0 -0.413003 -1.20199 0 -0.291036 -0.913172 0 -0.20009 -0.697812 0 -0.140165 -0.555909 0 -0.11126 -0.487464 0 -3 0.666667 0 -2.27618 0.506664 0 -1.67439 0.373636 0 -1.19463 0.267581 0 -0.836881 0.188501 0 -0.601161 0.136394 0 -0.487464 0.11126 0 0 -2 0 -2.64599e-17 -1.56788 0 -4.8459e-17 -1.2086 0 -6.59975e-17 -0.92218 0 -7.90752e-17 -0.708604 0 -8.76922e-17 -0.567878 0 -9.18485e-17 -0.5 0 -3 1.33333 0 -2.26553 1.01172 0 -1.65488 0.744328 0 -1.16805 0.531154 0 -0.805044 0.372198 0 -0.565854 0.267461 0 -0.450484 0.216942 0 0.75 -2 0 0.565991 -1.56427 0 0.413003 -1.20199 0 0.291036 -0.913172 0 0.20009 -0.697812 0 0.140165 -0.555909 0 0.11126 -0.487464 0 -3 2 0 -2.24837 1.51364 0 -1.62345 1.10928 0 -1.12525 0.78691 0 -0.75376 0.54653 0 -0.508981 0.388141 0 -0.390916 0.311745 0 1.5 -2 0 1.13037 -1.55361 0 0.823062 -1.18248 0 0.578063 -0.8866 0 0.395376 -0.665975 0 0.275002 -0.520603 0 0.216942 -0.450484 0 -2.25 2 0 -1.69162 1.53645 0 -1.22738 1.15105 0 -0.857273 0.843798 0 -0.581297 0.61469 0 -0.399454 0.46373 0 -0.311745 0.390916 0 2.25 -2 0 1.69162 -1.53645 0 1.22738 -1.15105 0 0.857273 -0.843798 0 0.581297 -0.61469 0 0.399454 -0.46373 0 0.311745 -0.390916 0 -1.5 2 0 -1.13037 1.55361 0 -0.823062 1.18248 0 -0.578063 0.8866 0 -0.395376 0.665975 0 -0.275002 0.520603 0 -0.216942 0.450484 0 3 -2 0 2.24837 -1.51364 0 1.62345 -1.10928 0 1.12525 -0.78691 0 0.75376 -0.54653 0 0.508981 -0.388141 0 0.390916 -0.311745 0 -0.75 2 0 -0.565991 1.56427 0 -0.413003 1.20199 0 -0.291036 0.913172 0 -0.20009 0.697812 0 -0.140165 0.555909 0 -0.11126 0.487464 0 3 -1.33333 0 2.26553 -1.01172 0 1.65488 -0.744328 0 1.16805 -0.531154 0 0.805044 -0.372198 0 0.565854 -0.267461 0 0.450484 -0.216942 0 0 2 0 4.40998e-17 1.56788 0 8.0765e-17 1.2086 0 1.09996e-16 0.92218 0 1.31792e-16 0.708604 0 1.46154e-16 0.567878 0 1.53081e-16 0.5 0 3 -0.666667 0 2.27618 -0.506664 0 1.67439 -0.373636 0 1.19463 -0.267581 0 0.836881 -0.188501 0 0.601161 -0.136394 0 0.487464 -0.11126 0 0.75 2 0 0.565991 1.56427 0 0.413003 1.20199 0 0.291036 0.913172 0 0.20009 0.697812 0 0.140165 0.555909 0 0.11126 0.487464 0 3 0 0 2.2798 -3.52798e-17 0 1.68101 -6.4612e-17 0 1.20363 -8.79966e-17 0 0.847674 -1.05434e-16 0 0.613129 -1.16923e-16 0 0.5 -1.22465e-16 0 1.5 2 0 1.13037 1.55361 0 0.823062 1.18248 0 0.578063 0.8866 0 0.395376 0.665975 0 0.275002 0.520603 0 0.216942 0.450484 0 3 0.666667 0 2.27618 0.506664 0 1.67439 0.373636 0 1.19463 0.267581 0 0.836881 0.188501 0 0.601161 0.136394 0 0.487464 0.11126 0 2.25 2 0 1.69162 1.53645 0 1.22738 1.15105 0 0.857273 0.843798 0 0.581297 0.61469 0 0.399454 0.46373 0 0.311745 0.390916 0 3 1.33333 0 2.26553 1.01172 0 1.65488 0.744328 0 1.16805 0.531154 0 0.805044 0.372198 0 0.565854 0.267461 0 0.450484 0.216942 0 3 2 0 2.24837 1.51364 0 1.62345 1.10928 0 1.12525 0.78691 0 0.75376 0.54653 0 0.508981 0.388141 0 0.390916 0.311745 0 
				</DataArray>
			</Points>
			<Cells>
				<DataArray type="UInt32" Name="connectivity" format="ascii" >
15 1 0 14 16 2 1 15 17 3 2 16 18 4 3 17 19 5 4 18 20 6 5 19 29 15 14 28 30 16 15 29 31 17 16 30 32 18 17 31 33 19 18 32 34 20 19 33 43 29 28 42 44 30 29 43 45 31 30 44 46 32 31 45 47 33 32 46 48 34 33 47 57 43 42 56 58 44 43 57 59 45 44 58 60 46 45 59 61 47 46 60 62 48 47 61 71 57 56 70 72 58 57 71 73 59 58 72 74 60 59 73 75 61 60 74 76 62 61 75 85 71 70 84 86 72 71 85 87 73 72 86 88 74 73 87 89 75 74 88 90 76 75 89 99 85 84 98 100 86 85 99 101 87 86 100 102 88 87 101 103 89 88 102 104 90 89 103 113 99 98 112 114 100 99 113 115 101 100 114 116 102 101 115 117 103 102 116 118 104 103 117 127 113 112 126 128 114 113 127 129 115 114 128 130 116 115 129 131 117 116 130 132 118 117 131 141 127 126 140 142 128 127 141 143 129 128 142 144 130 129 143 145 131 130 144 146 132 131 145 155 141 140 154 156 142 141 155 157 143 142 156 158 144 143 157 159 145 144 158 160 146 145 159 169 155 154 168 170 156 155 169 171 157 156 170 172 158 157 171 173 159 158 172 174 160 159 173 183 169 168 182 184 170 169 183 185 171 170 184 186 172 171 185 187 173 172 186 188 174 173 187 190 183 182 189 191 184 183 190 192 185 184 191 193 186 185 192 194 187 186 193 195 188 187 194 176 190 189 175 177 191 190 176 178 192 191 177 179 193 192 178 180 194 193 179 181 195 194 180 162 176 175 161 163 177 176 162 164 178 177 163 165 179 178 164 166 180 179 165 167 181 180 166 148 162 161 147 149 163 162 148 150 164 163 149 151 165 164 150 152 166 165 151 153 167 166 152 134 148 147 133 135 149 148 134 136 150 149 135 137 151 150 136 138 152 151 137 139 153 152 138 120 134 133 119 121 135 134 120 122 136 135 121 123 137 136 122 124 138 137 123 125 139 138 124 106 120 119 105 107 121 120 106 108 122 121 107 109 123 122 108 110 124 123 109 111 125 124 110 92 106 105 91 93 107 106 92 94 108 107 93 95 109 108 94 96 110 109 95 97 111 110 96 78 92 91 77 79 93 92 78 80 94 93 79 81 95 94 80 82 96 95 81 83 97 96 82 64 78 77 63 65 79 78 64 66 80 79 65 67 81 80 66 68 82 81 67 69 83 82 68 50 64 63 49 51 65 64 50 52 66 65 51 53 67 66 52 54 68 67 53 55 69 68 54 36 50 49 35 37 51 50 36 38 52 51 37 39 53 52 38 40 54 53 39 41 55 54 40 22 36 35 21 23 37 36 22 24 38 37 23 25 39 38 24 26 40 39 25 27 41 40 26 8 22 21 7 9 23 22 8 10 24 23 9 11 25 24 10 12 26 25 11 13 27 26 12 1 8 7 0 2 9 8 1 3 10 9 2 4 11 10 3 5 12 11 4 6 13 12 5 
				</DataArray>
				<DataArray type="UInt32" Name="offsets" format="ascii" >
4 8 12 16 20 24 28 32 36 40 44 48 52 56 60 64 68 72 76 80 84 88 92 96 100 104 108 112 116 120 124 128 132 136 140 144 148 152 156 160 164 168 172 176 180 184 188 192 196 200 204 208 212 216 220 224 228 232 236 240 244 248 252 256 260 264 268 272 276 280 284 288 292 296 300 304 308 312 316 320 324 328 332 336 340 344 348 352 356 360 364 368 372 376 380 384 388 392 396 400 404 408 412 416 420 424 428 432 436 440 444 448 452 456 460 464 468 472 476 480 484 488 492 496 500 504 508 512 516 520 524 528 532 536 540 544 548 552 556 560 564 568 572 576 580 584 588 592 596 600 604 608 612 616 620 624 628 632 636 640 644 648 652 656 660 664 668 672 
				</DataArray>
				<DataArray type="UInt32" Name="types" format="ascii" >
9 9 9 9 9 9 9 9 9 9 9 9 9 9 9 9 9 9 9 9 9 9 9 9 9 9 9 9 9 9 9 9 9 9 9 9 9 9 9 9 9 9 9 9 9 9 9 9 9 9 9 9 9 9 9 9 9 9 9 9 9 9 9 9 9 9 9 9 9 9 9 9 9 9 9 9 9 9 9 9 9 9 9 9 9 9 9 9 9 9 9 9 9 9 9 9 9 9 9 9 9 9 9 9 9 9 9 9 9 9 9 9 9 9 9 9 9 9 9 9 9 9 9 9 9 9 9 9 9 9 9 9 9 9 9 9 9 9 9 9 9 9 9 9 9 9 9 9 9 9 9 9 9 9 9 9 9 9 9 9 9 9 9 9 9 9 9 9 
				</DataArray>
			</Cells>
		</Piece>
	</UnstructuredGrid>
</VTKFile>